<svg width="874" height="512" viewBox="0 0 874 512" fill="none" xmlns="http://www.w3.org/2000/svg">
<g clip-path="url(#clip0)">
<path opacity="0.13" d="M510.3 466.7H0C0 466.7 20.8 394.9 72.4 400.9C124 406.9 112.2 368.6 120.4 318.9C128.5 269.2 177.1 177.3 265.9 186.5C354.7 195.6 313.8 100.9 350.6 45.4999C409.3 -42.7001 571 -9.80008 576.4 205.2C581.8 420.2 688.6 231.3 776.4 285.1C864.2 338.9 758.6 420.4 803.2 413.1C847.8 405.8 872.3 420.1 874.1 466.5H510.3V466.7Z" fill="url(#paint0_radial)"/>
<g opacity="0.45">
<path opacity="0.23" d="M809.2 227.3C808.4 227.3 807.6 227.5 806.8 227.8C806.7 221.3 801.4 216.1 794.9 216.1C794.1 216.1 793.3 216.2 792.6 216.3C790.1 209.9 783.8 205.3 776.5 205.3C767 205.3 759.2 213 759.2 222.6C759.2 222.8 759.2 222.9 759.2 223.1C758.3 222.8 757.3 222.6 756.3 222.6C751.5 222.6 747.7 226.5 747.7 231.2C747.7 236 751.6 239.8 756.3 239.8H809.2C812.7 239.8 815.5 237 815.5 233.5C815.5 230 812.7 227.3 809.2 227.3Z" fill="white"/>
<path opacity="0.45" d="M260.1 153.3C259.5 153.3 258.9 153.4 258.4 153.6C258.3 149 254.6 145.3 249.9 145.3C249.3 145.3 248.8 145.4 248.2 145.5C246.4 140.9 242 137.7 236.7 137.7C229.9 137.7 224.4 143.2 224.4 150C224.4 150.1 224.4 150.2 224.4 150.4C223.7 150.2 223 150 222.3 150C218.9 150 216.2 152.8 216.2 156.1C216.2 159.5 219 162.2 222.3 162.2H259.9C262.4 162.2 264.4 160.2 264.4 157.7C264.5 155.3 262.5 153.3 260.1 153.3Z" fill="white"/>
<path opacity="0.45" d="M353.1 105C351.9 105 350.7 105.2 349.6 105.7C349.4 96.2 341.7 88.6 332.2 88.6C331 88.6 329.9 88.7 328.8 88.9C325.1 79.4 315.9 72.7 305.2 72.7C291.2 72.7 279.8 84.1 279.8 98.1C279.8 98.4 279.8 98.6 279.8 98.9C278.5 98.4 277 98.1 275.5 98.1C268.5 98.1 262.8 103.8 262.8 110.8C262.8 117.8 268.5 123.5 275.5 123.5H353.1C358.2 123.5 362.3 119.4 362.3 114.3C362.3 109.2 358.2 105 353.1 105Z" fill="white"/>
<path opacity="0.25" d="M136.1 255.2C135.3 255.2 134.6 255.4 133.9 255.6C133.8 249.5 128.8 244.7 122.8 244.7C122 244.7 121.3 244.8 120.6 244.9C118.2 238.9 112.4 234.6 105.5 234.6C96.5999 234.6 89.2999 241.9 89.2999 250.8C89.2999 251 89.2999 251.1 89.2999 251.3C88.3999 251 87.4999 250.8 86.4999 250.8C81.9999 250.8 78.3999 254.4 78.3999 258.9C78.3999 263.4 81.9999 267 86.4999 267H136.1C139.4 267 142 264.4 142 261.1C142 257.8 139.3 255.2 136.1 255.2Z" fill="white"/>
<path opacity="0.51" d="M710.5 179.2C710 179.2 709.4 179.3 708.9 179.5C708.8 175.2 705.3 171.8 701.1 171.8C700.6 171.8 700.1 171.9 699.6 172C697.9 167.8 693.8 164.7 689 164.7C682.7 164.7 677.6 169.8 677.6 176.1C677.6 176.2 677.6 176.3 677.6 176.4C677 176.2 676.3 176.1 675.7 176.1C672.6 176.1 670 178.7 670 181.8C670 184.9 672.6 187.5 675.7 187.5H710.6C712.9 187.5 714.7 185.6 714.7 183.4C714.7 181.2 712.7 179.2 710.5 179.2Z" fill="white"/>
</g>
<g opacity="0.14">
<g opacity="0.14">
<g opacity="0.14">
<path opacity="0.14" d="M769 305.3H691.5V466.9H769V305.3Z" fill="url(#paint1_radial)"/>
<g opacity="0.41">
<g opacity="0.41">
<g opacity="0.41">
<path opacity="0.41" d="M723.51 337.894L769.01 337.894L769.01 332.894L723.51 332.894L723.51 337.894Z" fill="white"/>
<path opacity="0.41" d="M723.51 348.154L769.01 348.154L769.01 343.154L723.51 343.154L723.51 348.154Z" fill="white"/>
<path opacity="0.41" d="M723.51 358.414L769.01 358.414L769.01 353.414L723.51 353.414L723.51 358.414Z" fill="white"/>
</g>
<g opacity="0.41">
<path opacity="0.41" d="M723.51 368.447L769.01 368.447L769.01 363.447L723.51 363.447L723.51 368.447Z" fill="white"/>
<path opacity="0.41" d="M723.51 378.707L769.01 378.707L769.01 373.707L723.51 373.707L723.51 378.707Z" fill="white"/>
<path opacity="0.41" d="M723.51 388.967L769.01 388.967L769.01 383.967L723.51 383.967L723.51 388.967Z" fill="white"/>
</g>
<g opacity="0.41">
<path opacity="0.41" d="M723.51 399L769.01 399L769.01 394L723.51 394L723.51 399Z" fill="white"/>
<path opacity="0.41" d="M723.51 409.26L769.01 409.26L769.01 404.26L723.51 404.26L723.51 409.26Z" fill="white"/>
<path opacity="0.41" d="M723.51 419.52L769.01 419.52L769.01 414.52L723.51 414.52L723.51 419.52Z" fill="white"/>
</g>
<g opacity="0.41">
<path opacity="0.41" d="M723.51 429.552L769.01 429.552L769.01 424.552L723.51 424.552L723.51 429.552Z" fill="white"/>
<path opacity="0.41" d="M723.51 439.812L769.01 439.812L769.01 434.812L723.51 434.812L723.51 439.812Z" fill="white"/>
<path opacity="0.41" d="M723.51 450.172L769.01 450.172L769.01 445.172L723.51 445.172L723.51 450.172Z" fill="white"/>
</g>
</g>
<g opacity="0.41">
<g opacity="0.41">
<path opacity="0.41" d="M710.731 337.894L717.031 337.894L717.031 332.894L710.731 332.894L710.731 337.894Z" fill="white"/>
<path opacity="0.41" d="M710.731 348.154L717.031 348.154L717.031 343.154L710.731 343.154L710.731 348.154Z" fill="white"/>
<path opacity="0.41" d="M710.731 358.414L717.031 358.414L717.031 353.414L710.731 353.414L710.731 358.414Z" fill="white"/>
</g>
<g opacity="0.41">
<path opacity="0.41" d="M710.731 368.447L717.031 368.447L717.031 363.447L710.731 363.447L710.731 368.447Z" fill="white"/>
<path opacity="0.41" d="M710.731 378.707L717.031 378.707L717.031 373.707L710.731 373.707L710.731 378.707Z" fill="white"/>
<path opacity="0.41" d="M710.731 388.967L717.031 388.967L717.031 383.967L710.731 383.967L710.731 388.967Z" fill="white"/>
</g>
<g opacity="0.41">
<path opacity="0.41" d="M710.731 399L717.031 399L717.031 394L710.731 394L710.731 399Z" fill="white"/>
<path opacity="0.41" d="M710.731 409.26L717.031 409.26L717.031 404.26L710.731 404.26L710.731 409.26Z" fill="white"/>
<path opacity="0.41" d="M710.731 419.52L717.031 419.52L717.031 414.52L710.731 414.52L710.731 419.52Z" fill="white"/>
</g>
<g opacity="0.41">
<path opacity="0.41" d="M710.731 429.552L717.031 429.552L717.031 424.552L710.731 424.552L710.731 429.552Z" fill="white"/>
<path opacity="0.41" d="M710.731 439.812L717.031 439.812L717.031 434.812L710.731 434.812L710.731 439.812Z" fill="white"/>
<path opacity="0.41" d="M710.731 450.172L717.031 450.172L717.031 445.172L710.731 445.172L710.731 450.172Z" fill="white"/>
</g>
</g>
<g opacity="0.41">
<g opacity="0.41">
<path opacity="0.41" d="M691.494 337.894L705.494 337.894L705.494 332.894L691.494 332.894L691.494 337.894Z" fill="white"/>
<path opacity="0.41" d="M691.494 348.154L705.494 348.154L705.494 343.154L691.494 343.154L691.494 348.154Z" fill="white"/>
<path opacity="0.41" d="M691.494 358.414L705.494 358.414L705.494 353.414L691.494 353.414L691.494 358.414Z" fill="white"/>
</g>
<g opacity="0.41">
<path opacity="0.41" d="M691.494 368.447L705.494 368.447L705.494 363.447L691.494 363.447L691.494 368.447Z" fill="white"/>
<path opacity="0.41" d="M691.494 378.707L705.494 378.707L705.494 373.707L691.494 373.707L691.494 378.707Z" fill="white"/>
<path opacity="0.41" d="M691.494 388.967L705.494 388.967L705.494 383.967L691.494 383.967L691.494 388.967Z" fill="white"/>
</g>
<g opacity="0.41">
<path opacity="0.41" d="M691.494 399L705.494 399L705.494 394L691.494 394L691.494 399Z" fill="white"/>
<path opacity="0.41" d="M691.494 409.26L705.494 409.26L705.494 404.26L691.494 404.26L691.494 409.26Z" fill="white"/>
<path opacity="0.41" d="M691.494 419.52L705.494 419.52L705.494 414.52L691.494 414.52L691.494 419.52Z" fill="white"/>
</g>
<g opacity="0.41">
<path opacity="0.41" d="M691.494 429.552L705.494 429.552L705.494 424.552L691.494 424.552L691.494 429.552Z" fill="white"/>
<path opacity="0.41" d="M691.494 439.812L705.494 439.812L705.494 434.812L691.494 434.812L691.494 439.812Z" fill="white"/>
<path opacity="0.41" d="M691.494 450.172L705.494 450.172L705.494 445.172L691.494 445.172L691.494 450.172Z" fill="white"/>
</g>
</g>
</g>
<path opacity="0.28" d="M747.162 466.796L758.462 466.796L758.462 457.196L747.162 457.196L747.162 466.796Z" fill="white"/>
<path opacity="0.28" d="M734.876 466.796L746.176 466.796L746.176 457.196L734.876 457.196L734.876 466.796Z" fill="white"/>
<path opacity="0.28" d="M717.12 462.005L728.42 462.005L728.42 457.205L717.12 457.205L717.12 462.005Z" fill="white"/>
<path opacity="0.28" d="M702.597 462.005L713.897 462.005L713.897 457.205L702.597 457.205L702.597 462.005Z" fill="white"/>
<path opacity="0.21" d="M691.446 327.286L768.946 327.286L768.946 322.086L691.446 322.086L691.446 327.286Z" fill="white"/>
<path opacity="0.21" d="M691.446 318.066L768.946 318.066L768.946 312.866L691.446 312.866L691.446 318.066Z" fill="white"/>
</g>
<path opacity="0.14" d="M754.2 305.3H696.6V294.3H741.8L754.2 305.3Z" fill="url(#paint2_radial)"/>
</g>
<g opacity="0.14">
<path opacity="0.14" d="M699.4 261.7H601V466.8H699.4V261.7Z" fill="url(#paint3_radial)"/>
<g opacity="0.42">
<g opacity="0.42">
<g opacity="0.42">
<path opacity="0.42" d="M632.698 296.408L640.598 296.408L640.598 290.008L632.698 290.008L632.698 296.408Z" fill="white"/>
<path opacity="0.42" d="M632.698 309.411L640.598 309.411L640.598 303.011L632.698 303.011L632.698 309.411Z" fill="white"/>
<path opacity="0.42" d="M632.698 322.514L640.598 322.514L640.598 316.114L632.698 316.114L632.698 322.514Z" fill="white"/>
</g>
<g opacity="0.42">
<path opacity="0.42" d="M632.698 335.248L640.598 335.248L640.598 328.848L632.698 328.848L632.698 335.248Z" fill="white"/>
<path opacity="0.42" d="M632.698 348.25L640.598 348.25L640.598 341.85L632.698 341.85L632.698 348.25Z" fill="white"/>
<path opacity="0.42" d="M632.698 361.354L640.598 361.354L640.598 354.954L632.698 354.954L632.698 361.354Z" fill="white"/>
</g>
<g opacity="0.42">
<path opacity="0.42" d="M632.698 373.987L640.598 373.987L640.598 367.587L632.698 367.587L632.698 373.987Z" fill="white"/>
<path opacity="0.42" d="M632.698 387.09L640.598 387.09L640.598 380.69L632.698 380.69L632.698 387.09Z" fill="white"/>
<path opacity="0.42" d="M632.698 400.093L640.598 400.093L640.598 393.693L632.698 393.693L632.698 400.093Z" fill="white"/>
</g>
<g opacity="0.42">
<path opacity="0.42" d="M632.698 412.826L640.598 412.826L640.598 406.426L632.698 406.426L632.698 412.826Z" fill="white"/>
<path opacity="0.42" d="M632.698 425.929L640.598 425.929L640.598 419.529L632.698 419.529L632.698 425.929Z" fill="white"/>
<path opacity="0.42" d="M632.698 438.932L640.598 438.932L640.598 432.532L632.698 432.532L632.698 438.932Z" fill="white"/>
</g>
</g>
<g opacity="0.42">
<g opacity="0.42">
<path opacity="0.42" d="M610.419 296.408L618.319 296.408L618.319 290.008L610.419 290.008L610.419 296.408Z" fill="white"/>
<path opacity="0.42" d="M610.419 309.411L618.319 309.411L618.319 303.011L610.419 303.011L610.419 309.411Z" fill="white"/>
<path opacity="0.42" d="M610.419 322.514L618.319 322.514L618.319 316.114L610.419 316.114L610.419 322.514Z" fill="white"/>
</g>
<g opacity="0.42">
<path opacity="0.42" d="M610.419 335.248L618.319 335.248L618.319 328.848L610.419 328.848L610.419 335.248Z" fill="white"/>
<path opacity="0.42" d="M610.419 348.25L618.319 348.25L618.319 341.85L610.419 341.85L610.419 348.25Z" fill="white"/>
<path opacity="0.42" d="M610.419 361.354L618.319 361.354L618.319 354.954L610.419 354.954L610.419 361.354Z" fill="white"/>
</g>
<g opacity="0.42">
<path opacity="0.42" d="M610.419 373.987L618.319 373.987L618.319 367.587L610.419 367.587L610.419 373.987Z" fill="white"/>
<path opacity="0.42" d="M610.419 387.09L618.319 387.09L618.319 380.69L610.419 380.69L610.419 387.09Z" fill="white"/>
<path opacity="0.42" d="M610.419 400.093L618.319 400.093L618.319 393.693L610.419 393.693L610.419 400.093Z" fill="white"/>
</g>
<g opacity="0.42">
<path opacity="0.42" d="M610.419 412.826L618.319 412.826L618.319 406.426L610.419 406.426L610.419 412.826Z" fill="white"/>
<path opacity="0.42" d="M610.419 425.929L618.319 425.929L618.319 419.529L610.419 419.529L610.419 425.929Z" fill="white"/>
<path opacity="0.42" d="M610.419 438.932L618.319 438.932L618.319 432.532L610.419 432.532L610.419 438.932Z" fill="white"/>
</g>
</g>
<g opacity="0.42">
<g opacity="0.42">
<path opacity="0.42" d="M677.356 296.408L685.256 296.408L685.256 290.008L677.356 290.008L677.356 296.408Z" fill="white"/>
<path opacity="0.42" d="M677.356 309.411L685.256 309.411L685.256 303.011L677.356 303.011L677.356 309.411Z" fill="white"/>
<path opacity="0.42" d="M677.356 322.514L685.256 322.514L685.256 316.114L677.356 316.114L677.356 322.514Z" fill="white"/>
</g>
<g opacity="0.42">
<path opacity="0.42" d="M677.356 335.248L685.256 335.248L685.256 328.848L677.356 328.848L677.356 335.248Z" fill="white"/>
<path opacity="0.42" d="M677.356 348.25L685.256 348.25L685.256 341.85L677.356 341.85L677.356 348.25Z" fill="white"/>
<path opacity="0.42" d="M677.356 361.354L685.256 361.354L685.256 354.954L677.356 354.954L677.356 361.354Z" fill="white"/>
</g>
<g opacity="0.42">
<path opacity="0.42" d="M677.356 373.987L685.256 373.987L685.256 367.587L677.356 367.587L677.356 373.987Z" fill="white"/>
<path opacity="0.42" d="M677.356 387.09L685.256 387.09L685.256 380.69L677.356 380.69L677.356 387.09Z" fill="white"/>
<path opacity="0.42" d="M677.356 400.093L685.256 400.093L685.256 393.693L677.356 393.693L677.356 400.093Z" fill="white"/>
</g>
<g opacity="0.42">
<path opacity="0.42" d="M677.356 412.826L685.256 412.826L685.256 406.426L677.356 406.426L677.356 412.826Z" fill="white"/>
<path opacity="0.42" d="M677.356 425.929L685.256 425.929L685.256 419.529L677.356 419.529L677.356 425.929Z" fill="white"/>
<path opacity="0.42" d="M677.356 438.932L685.256 438.932L685.256 432.532L677.356 432.532L677.356 438.932Z" fill="white"/>
</g>
</g>
<g opacity="0.42">
<g opacity="0.42">
<path opacity="0.42" d="M655.077 296.408L662.977 296.408L662.977 290.008L655.077 290.008L655.077 296.408Z" fill="white"/>
<path opacity="0.42" d="M655.077 309.411L662.977 309.411L662.977 303.011L655.077 303.011L655.077 309.411Z" fill="white"/>
<path opacity="0.42" d="M655.077 322.514L662.977 322.514L662.977 316.114L655.077 316.114L655.077 322.514Z" fill="white"/>
</g>
<g opacity="0.42">
<path opacity="0.42" d="M655.077 335.248L662.977 335.248L662.977 328.848L655.077 328.848L655.077 335.248Z" fill="white"/>
<path opacity="0.42" d="M655.077 348.25L662.977 348.25L662.977 341.85L655.077 341.85L655.077 348.25Z" fill="white"/>
<path opacity="0.42" d="M655.077 361.354L662.977 361.354L662.977 354.954L655.077 354.954L655.077 361.354Z" fill="white"/>
</g>
<g opacity="0.42">
<path opacity="0.42" d="M655.077 373.987L662.977 373.987L662.977 367.587L655.077 367.587L655.077 373.987Z" fill="white"/>
<path opacity="0.42" d="M655.077 387.09L662.977 387.09L662.977 380.69L655.077 380.69L655.077 387.09Z" fill="white"/>
<path opacity="0.42" d="M655.077 400.093L662.977 400.093L662.977 393.693L655.077 393.693L655.077 400.093Z" fill="white"/>
</g>
<g opacity="0.42">
<path opacity="0.42" d="M655.077 412.826L662.977 412.826L662.977 406.426L655.077 406.426L655.077 412.826Z" fill="white"/>
<path opacity="0.42" d="M655.077 425.929L662.977 425.929L662.977 419.529L655.077 419.529L655.077 425.929Z" fill="white"/>
<path opacity="0.42" d="M655.077 438.932L662.977 438.932L662.977 432.532L655.077 432.532L655.077 438.932Z" fill="white"/>
</g>
</g>
</g>
<path opacity="0.28" d="M671.632 466.813L686.032 466.813L686.032 454.613L671.632 454.613L671.632 466.813Z" fill="white"/>
<path opacity="0.28" d="M656.017 466.813L670.417 466.813L670.417 454.613L656.017 454.613L656.017 466.813Z" fill="white"/>
<path opacity="0.28" d="M633.447 460.73L647.847 460.73L647.847 454.63L633.447 454.63L633.447 460.73Z" fill="white"/>
<path opacity="0.28" d="M615.027 460.73L629.427 460.73L629.427 454.63L615.027 454.63L615.027 460.73Z" fill="white"/>
<path opacity="0.14" d="M606.4 262.9H686.1V250.4H606.4V262.9Z" fill="url(#paint4_radial)"/>
<path opacity="0.14" d="M606.4 250.4H668.1V237.9H606.4V250.4Z" fill="url(#paint5_radial)"/>
</g>
<g opacity="0.14">
<path opacity="0.14" d="M810.6 466.8H761V363.4L810.6 375.3V466.8Z" fill="url(#paint6_radial)"/>
<g opacity="0.41">
<g opacity="0.41">
<g opacity="0.41">
<path opacity="0.41" d="M790.1 381.1H761V384.3H790.1V381.1Z" fill="white"/>
<path opacity="0.41" d="M790.1 387.6H761V390.8H790.1V387.6Z" fill="white"/>
<path opacity="0.41" d="M790.1 394.2H761V397.4H790.1V394.2Z" fill="white"/>
</g>
<g opacity="0.41">
<path opacity="0.41" d="M790.1 400.6H761V403.8H790.1V400.6Z" fill="white"/>
<path opacity="0.41" d="M790.1 407.2H761V410.4H790.1V407.2Z" fill="white"/>
<path opacity="0.41" d="M790.1 413.8H761V417H790.1V413.8Z" fill="white"/>
</g>
<g opacity="0.41">
<path opacity="0.41" d="M790.1 420.2H761V423.4H790.1V420.2Z" fill="white"/>
<path opacity="0.41" d="M790.1 426.8H761V430H790.1V426.8Z" fill="white"/>
<path opacity="0.41" d="M790.1 433.4H761V436.6H790.1V433.4Z" fill="white"/>
</g>
<g opacity="0.41">
<path opacity="0.41" d="M790.1 439.8H761V443H790.1V439.8Z" fill="white"/>
<path opacity="0.41" d="M790.1 446.4H761V449.6H790.1V446.4Z" fill="white"/>
<path opacity="0.41" d="M790.1 452.9H761V456.1H790.1V452.9Z" fill="white"/>
</g>
</g>
<g opacity="0.41">
<g opacity="0.41">
<path opacity="0.41" d="M798.2 381.1H794.2V384.3H798.2V381.1Z" fill="white"/>
<path opacity="0.41" d="M798.2 387.6H794.2V390.8H798.2V387.6Z" fill="white"/>
<path opacity="0.41" d="M798.2 394.2H794.2V397.4H798.2V394.2Z" fill="white"/>
</g>
<g opacity="0.41">
<path opacity="0.41" d="M798.2 400.6H794.2V403.8H798.2V400.6Z" fill="white"/>
<path opacity="0.41" d="M798.2 407.2H794.2V410.4H798.2V407.2Z" fill="white"/>
<path opacity="0.41" d="M798.2 413.8H794.2V417H798.2V413.8Z" fill="white"/>
</g>
<g opacity="0.41">
<path opacity="0.41" d="M798.2 420.2H794.2V423.4H798.2V420.2Z" fill="white"/>
<path opacity="0.41" d="M798.2 426.8H794.2V430H798.2V426.8Z" fill="white"/>
<path opacity="0.41" d="M798.2 433.4H794.2V436.6H798.2V433.4Z" fill="white"/>
</g>
<g opacity="0.41">
<path opacity="0.41" d="M798.2 439.8H794.2V443H798.2V439.8Z" fill="white"/>
<path opacity="0.41" d="M798.2 446.4H794.2V449.6H798.2V446.4Z" fill="white"/>
<path opacity="0.41" d="M798.2 452.9H794.2V456.1H798.2V452.9Z" fill="white"/>
</g>
</g>
<g opacity="0.41">
<g opacity="0.41">
<path opacity="0.41" d="M810.6 381.1H801.6V384.3H810.6V381.1Z" fill="white"/>
<path opacity="0.41" d="M810.6 387.6H801.6V390.8H810.6V387.6Z" fill="white"/>
<path opacity="0.41" d="M810.6 394.2H801.6V397.4H810.6V394.2Z" fill="white"/>
</g>
<g opacity="0.41">
<path opacity="0.41" d="M810.6 400.6H801.6V403.8H810.6V400.6Z" fill="white"/>
<path opacity="0.41" d="M810.6 407.2H801.6V410.4H810.6V407.2Z" fill="white"/>
<path opacity="0.41" d="M810.6 413.8H801.6V417H810.6V413.8Z" fill="white"/>
</g>
<g opacity="0.41">
<path opacity="0.41" d="M810.6 420.2H801.6V423.4H810.6V420.2Z" fill="white"/>
<path opacity="0.41" d="M810.6 426.8H801.6V430H810.6V426.8Z" fill="white"/>
<path opacity="0.41" d="M810.6 433.4H801.6V436.6H810.6V433.4Z" fill="white"/>
</g>
<g opacity="0.41">
<path opacity="0.41" d="M810.6 439.8H801.6V443H810.6V439.8Z" fill="white"/>
<path opacity="0.41" d="M810.6 446.4H801.6V449.6H810.6V446.4Z" fill="white"/>
<path opacity="0.41" d="M810.6 452.9H801.6V456.1H810.6V452.9Z" fill="white"/>
</g>
</g>
</g>
<path opacity="0.28" d="M775 460.7H767.7V466.8H775V460.7Z" fill="white"/>
<path opacity="0.28" d="M782.8 460.7H775.5V466.8H782.8V460.7Z" fill="white"/>
<path opacity="0.28" d="M794.2 460.7H786.9V463.8H794.2V460.7Z" fill="white"/>
<path opacity="0.28" d="M803.5 460.7H796.2V463.8H803.5V460.7Z" fill="white"/>
</g>
</g>
<g opacity="0.47">
<g opacity="0.47">
<path opacity="0.47" d="M347.8 463.7H468.1V179.1L347.8 211.7V463.7Z" fill="url(#paint7_radial)"/>
<g opacity="0.41">
<g opacity="0.41">
<g opacity="0.41">
<path opacity="0.41" d="M397.466 236.504L468.167 236.504L468.167 227.704L397.466 227.704L397.466 236.504Z" fill="white"/>
<path opacity="0.41" d="M397.466 254.524L468.167 254.524L468.167 245.724L397.466 245.724L397.466 254.524Z" fill="white"/>
<path opacity="0.41" d="M397.466 272.645L468.167 272.645L468.167 263.845L397.466 263.845L397.466 272.645Z" fill="white"/>
</g>
<g opacity="0.41">
<path opacity="0.41" d="M397.466 290.337L468.167 290.337L468.167 281.537L397.466 281.537L397.466 290.337Z" fill="white"/>
<path opacity="0.41" d="M397.466 308.457L468.167 308.457L468.167 299.657L397.466 299.657L397.466 308.457Z" fill="white"/>
<path opacity="0.41" d="M397.466 326.578L468.167 326.578L468.167 317.778L397.466 317.778L397.466 326.578Z" fill="white"/>
</g>
<g opacity="0.41">
<path opacity="0.41" d="M397.466 344.169L468.167 344.169L468.167 335.369L397.466 335.369L397.466 344.169Z" fill="white"/>
<path opacity="0.41" d="M397.466 362.29L468.167 362.29L468.167 353.49L397.466 353.49L397.466 362.29Z" fill="white"/>
<path opacity="0.41" d="M397.466 380.41L468.167 380.41L468.167 371.61L397.466 371.61L397.466 380.41Z" fill="white"/>
</g>
<g opacity="0.41">
<path opacity="0.41" d="M397.466 398.102L468.167 398.102L468.167 389.302L397.466 389.302L397.466 398.102Z" fill="white"/>
<path opacity="0.41" d="M397.466 416.222L468.167 416.222L468.167 407.422L397.466 407.422L397.466 416.222Z" fill="white"/>
<path opacity="0.41" d="M397.466 434.243L468.167 434.243L468.167 425.443L397.466 425.443L397.466 434.243Z" fill="white"/>
</g>
</g>
<g opacity="0.41">
<g opacity="0.41">
<path opacity="0.41" d="M377.775 236.504L387.475 236.504L387.475 227.704L377.775 227.704L377.775 236.504Z" fill="white"/>
<path opacity="0.41" d="M377.775 254.524L387.475 254.524L387.475 245.724L377.775 245.724L377.775 254.524Z" fill="white"/>
<path opacity="0.41" d="M377.775 272.645L387.475 272.645L387.475 263.845L377.775 263.845L377.775 272.645Z" fill="white"/>
</g>
<g opacity="0.41">
<path opacity="0.41" d="M377.775 290.337L387.475 290.337L387.475 281.537L377.775 281.537L377.775 290.337Z" fill="white"/>
<path opacity="0.41" d="M377.775 308.457L387.475 308.457L387.475 299.657L377.775 299.657L377.775 308.457Z" fill="white"/>
<path opacity="0.41" d="M377.775 326.578L387.475 326.578L387.475 317.778L377.775 317.778L377.775 326.578Z" fill="white"/>
</g>
<g opacity="0.41">
<path opacity="0.41" d="M377.775 344.169L387.475 344.169L387.475 335.369L377.775 335.369L377.775 344.169Z" fill="white"/>
<path opacity="0.41" d="M377.775 362.29L387.475 362.29L387.475 353.49L377.775 353.49L377.775 362.29Z" fill="white"/>
<path opacity="0.41" d="M377.775 380.41L387.475 380.41L387.475 371.61L377.775 371.61L377.775 380.41Z" fill="white"/>
</g>
<g opacity="0.41">
<path opacity="0.41" d="M377.775 398.102L387.475 398.102L387.475 389.302L377.775 389.302L377.775 398.102Z" fill="white"/>
<path opacity="0.41" d="M377.775 416.222L387.475 416.222L387.475 407.422L377.775 407.422L377.775 416.222Z" fill="white"/>
<path opacity="0.41" d="M377.775 434.243L387.475 434.243L387.475 425.443L377.775 425.443L377.775 434.243Z" fill="white"/>
</g>
</g>
<g opacity="0.41">
<g opacity="0.41">
<path opacity="0.41" d="M347.784 236.504L369.584 236.504L369.584 227.704L347.784 227.704L347.784 236.504Z" fill="white"/>
<path opacity="0.41" d="M347.784 254.524L369.584 254.524L369.584 245.724L347.784 245.724L347.784 254.524Z" fill="white"/>
<path opacity="0.41" d="M347.784 272.645L369.584 272.645L369.584 263.845L347.784 263.845L347.784 272.645Z" fill="white"/>
</g>
<g opacity="0.41">
<path opacity="0.41" d="M347.784 290.337L369.584 290.337L369.584 281.537L347.784 281.537L347.784 290.337Z" fill="white"/>
<path opacity="0.41" d="M347.784 308.457L369.584 308.457L369.584 299.657L347.784 299.657L347.784 308.457Z" fill="white"/>
<path opacity="0.41" d="M347.784 326.578L369.584 326.578L369.584 317.778L347.784 317.778L347.784 326.578Z" fill="white"/>
</g>
<g opacity="0.41">
<path opacity="0.41" d="M347.784 344.169L369.584 344.169L369.584 335.369L347.784 335.369L347.784 344.169Z" fill="white"/>
<path opacity="0.41" d="M347.784 362.29L369.584 362.29L369.584 353.49L347.784 353.49L347.784 362.29Z" fill="white"/>
<path opacity="0.41" d="M347.784 380.41L369.584 380.41L369.584 371.61L347.784 371.61L347.784 380.41Z" fill="white"/>
</g>
<g opacity="0.41">
<path opacity="0.41" d="M347.784 398.102L369.584 398.102L369.584 389.302L347.784 389.302L347.784 398.102Z" fill="white"/>
<path opacity="0.41" d="M347.784 416.222L369.584 416.222L369.584 407.422L347.784 407.422L347.784 416.222Z" fill="white"/>
<path opacity="0.41" d="M347.784 434.243L369.584 434.243L369.584 425.443L347.784 425.443L347.784 434.243Z" fill="white"/>
</g>
</g>
</g>
<path opacity="0.28" d="M434.246 463.723L451.846 463.723L451.846 446.823L434.246 446.823L434.246 463.723Z" fill="white"/>
<path opacity="0.28" d="M415.164 463.723L432.764 463.723L432.764 446.823L415.164 446.823L415.164 463.723Z" fill="white"/>
<path opacity="0.28" d="M387.489 455.282L405.089 455.282L405.089 446.882L387.489 446.882L387.489 455.282Z" fill="white"/>
<path opacity="0.28" d="M365.073 455.282L382.673 455.282L382.673 446.882L365.073 446.882L365.073 455.282Z" fill="white"/>
</g>
<g opacity="0.47">
<path opacity="0.47" d="M359.4 287.1H284.7V463.7H359.4V287.1Z" fill="url(#paint8_radial)"/>
<g opacity="0.42">
<g opacity="0.42">
<g opacity="0.42">
<path opacity="0.42" d="M308.826 316.926L314.826 316.926L314.826 311.426L308.826 311.426L308.826 316.926Z" fill="white"/>
<path opacity="0.42" d="M308.826 328.199L314.826 328.199L314.826 322.699L308.826 322.699L308.826 328.199Z" fill="white"/>
<path opacity="0.42" d="M308.826 339.472L314.826 339.472L314.826 333.972L308.826 333.972L308.826 339.472Z" fill="white"/>
</g>
<g opacity="0.42">
<path opacity="0.42" d="M308.826 350.369L314.826 350.369L314.826 344.869L308.826 344.869L308.826 350.369Z" fill="white"/>
<path opacity="0.42" d="M308.826 361.641L314.826 361.641L314.826 356.141L308.826 356.141L308.826 361.641Z" fill="white"/>
<path opacity="0.42" d="M308.826 372.814L314.826 372.814L314.826 367.314L308.826 367.314L308.826 372.814Z" fill="white"/>
</g>
<g opacity="0.42">
<path opacity="0.42" d="M308.826 383.811L314.826 383.811L314.826 378.311L308.826 378.311L308.826 383.811Z" fill="white"/>
<path opacity="0.42" d="M308.826 394.984L314.826 394.984L314.826 389.484L308.826 389.484L308.826 394.984Z" fill="white"/>
<path opacity="0.42" d="M308.826 406.257L314.826 406.257L314.826 400.757L308.826 400.757L308.826 406.257Z" fill="white"/>
</g>
<g opacity="0.42">
<path opacity="0.42" d="M308.826 417.253L314.826 417.253L314.826 411.753L308.826 411.753L308.826 417.253Z" fill="white"/>
<path opacity="0.42" d="M308.826 428.426L314.826 428.426L314.826 422.926L308.826 422.926L308.826 428.426Z" fill="white"/>
<path opacity="0.42" d="M308.826 439.699L314.826 439.699L314.826 434.199L308.826 434.199L308.826 439.699Z" fill="white"/>
</g>
</g>
<g opacity="0.42">
<g opacity="0.42">
<path opacity="0.42" d="M291.917 316.926L297.917 316.926L297.917 311.426L291.917 311.426L291.917 316.926Z" fill="white"/>
<path opacity="0.42" d="M291.917 328.199L297.917 328.199L297.917 322.699L291.917 322.699L291.917 328.199Z" fill="white"/>
<path opacity="0.42" d="M291.917 339.472L297.917 339.472L297.917 333.972L291.917 333.972L291.917 339.472Z" fill="white"/>
</g>
<g opacity="0.42">
<path opacity="0.42" d="M291.917 350.369L297.917 350.369L297.917 344.869L291.917 344.869L291.917 350.369Z" fill="white"/>
<path opacity="0.42" d="M291.917 361.641L297.917 361.641L297.917 356.141L291.917 356.141L291.917 361.641Z" fill="white"/>
<path opacity="0.42" d="M291.917 372.814L297.917 372.814L297.917 367.314L291.917 367.314L291.917 372.814Z" fill="white"/>
</g>
<g opacity="0.42">
<path opacity="0.42" d="M291.917 383.811L297.917 383.811L297.917 378.311L291.917 378.311L291.917 383.811Z" fill="white"/>
<path opacity="0.42" d="M291.917 394.984L297.917 394.984L297.917 389.484L291.917 389.484L291.917 394.984Z" fill="white"/>
<path opacity="0.42" d="M291.917 406.257L297.917 406.257L297.917 400.757L291.917 400.757L291.917 406.257Z" fill="white"/>
</g>
<g opacity="0.42">
<path opacity="0.42" d="M291.917 417.253L297.917 417.253L297.917 411.753L291.917 411.753L291.917 417.253Z" fill="white"/>
<path opacity="0.42" d="M291.917 428.426L297.917 428.426L297.917 422.926L291.917 422.926L291.917 428.426Z" fill="white"/>
<path opacity="0.42" d="M291.917 439.699L297.917 439.699L297.917 434.199L291.917 434.199L291.917 439.699Z" fill="white"/>
</g>
</g>
<g opacity="0.42">
<g opacity="0.42">
<path opacity="0.42" d="M342.744 316.926L348.744 316.926L348.744 311.426L342.744 311.426L342.744 316.926Z" fill="white"/>
<path opacity="0.42" d="M342.744 328.199L348.744 328.199L348.744 322.699L342.744 322.699L342.744 328.199Z" fill="white"/>
<path opacity="0.42" d="M342.744 339.472L348.744 339.472L348.744 333.972L342.744 333.972L342.744 339.472Z" fill="white"/>
</g>
<g opacity="0.42">
<path opacity="0.42" d="M342.744 350.369L348.744 350.369L348.744 344.869L342.744 344.869L342.744 350.369Z" fill="white"/>
<path opacity="0.42" d="M342.744 361.641L348.744 361.641L348.744 356.141L342.744 356.141L342.744 361.641Z" fill="white"/>
<path opacity="0.42" d="M342.744 372.814L348.744 372.814L348.744 367.314L342.744 367.314L342.744 372.814Z" fill="white"/>
</g>
<g opacity="0.42">
<path opacity="0.42" d="M342.744 383.811L348.744 383.811L348.744 378.311L342.744 378.311L342.744 383.811Z" fill="white"/>
<path opacity="0.42" d="M342.744 394.984L348.744 394.984L348.744 389.484L342.744 389.484L342.744 394.984Z" fill="white"/>
<path opacity="0.42" d="M342.744 406.257L348.744 406.257L348.744 400.757L342.744 400.757L342.744 406.257Z" fill="white"/>
</g>
<g opacity="0.42">
<path opacity="0.42" d="M342.744 417.253L348.744 417.253L348.744 411.753L342.744 411.753L342.744 417.253Z" fill="white"/>
<path opacity="0.42" d="M342.744 428.426L348.744 428.426L348.744 422.926L342.744 422.926L342.744 428.426Z" fill="white"/>
<path opacity="0.42" d="M342.744 439.699L348.744 439.699L348.744 434.199L342.744 434.199L342.744 439.699Z" fill="white"/>
</g>
</g>
<g opacity="0.42">
<g opacity="0.42">
<path opacity="0.42" d="M325.735 316.926L331.735 316.926L331.735 311.426L325.735 311.426L325.735 316.926Z" fill="white"/>
<path opacity="0.42" d="M325.735 328.199L331.735 328.199L331.735 322.699L325.735 322.699L325.735 328.199Z" fill="white"/>
<path opacity="0.42" d="M325.735 339.472L331.735 339.472L331.735 333.972L325.735 333.972L325.735 339.472Z" fill="white"/>
</g>
<g opacity="0.42">
<path opacity="0.42" d="M325.735 350.369L331.735 350.369L331.735 344.869L325.735 344.869L325.735 350.369Z" fill="white"/>
<path opacity="0.42" d="M325.735 361.641L331.735 361.641L331.735 356.141L325.735 356.141L325.735 361.641Z" fill="white"/>
<path opacity="0.42" d="M325.735 372.814L331.735 372.814L331.735 367.314L325.735 367.314L325.735 372.814Z" fill="white"/>
</g>
<g opacity="0.42">
<path opacity="0.42" d="M325.735 383.811L331.735 383.811L331.735 378.311L325.735 378.311L325.735 383.811Z" fill="white"/>
<path opacity="0.42" d="M325.735 394.984L331.735 394.984L331.735 389.484L325.735 389.484L325.735 394.984Z" fill="white"/>
<path opacity="0.42" d="M325.735 406.257L331.735 406.257L331.735 400.757L325.735 400.757L325.735 406.257Z" fill="white"/>
</g>
<g opacity="0.42">
<path opacity="0.42" d="M325.735 417.253L331.735 417.253L331.735 411.753L325.735 411.753L325.735 417.253Z" fill="white"/>
<path opacity="0.42" d="M325.735 428.426L331.735 428.426L331.735 422.926L325.735 422.926L325.735 428.426Z" fill="white"/>
<path opacity="0.42" d="M325.735 439.699L331.735 439.699L331.735 434.199L325.735 434.199L325.735 439.699Z" fill="white"/>
</g>
</g>
</g>
<path opacity="0.28" d="M338.406 463.73L349.306 463.73L349.306 453.23L338.406 453.23L338.406 463.73Z" fill="white"/>
<path opacity="0.28" d="M326.616 463.73L337.516 463.73L337.516 453.23L326.616 453.23L326.616 463.73Z" fill="white"/>
<path opacity="0.28" d="M309.359 458.493L320.259 458.493L320.259 453.293L309.359 453.293L309.359 458.493Z" fill="white"/>
<path opacity="0.28" d="M295.491 458.493L306.391 458.493L306.391 453.293L295.491 453.293L295.491 458.493Z" fill="white"/>
<path opacity="0.47" d="M288.8 288.1H349.3V277.3H288.8V288.1Z" fill="url(#paint9_radial)"/>
<path opacity="0.47" d="M288.8 277.3H335.7V266.6H288.8V277.3Z" fill="url(#paint10_radial)"/>
</g>
</g>
<g opacity="0.25">
<g opacity="0.25">
<g opacity="0.25">
<path opacity="0.25" d="M289 314.2H226V463.1H289V314.2Z" fill="url(#paint11_radial)"/>
<g opacity="0.41">
<g opacity="0.41">
<g opacity="0.41">
<path opacity="0.41" d="M251.948 344.191L288.948 344.191L288.948 339.591L251.948 339.591L251.948 344.191Z" fill="white"/>
<path opacity="0.41" d="M251.948 353.639L288.948 353.639L288.948 349.039L251.948 349.039L251.948 353.639Z" fill="white"/>
<path opacity="0.41" d="M251.948 363.187L288.948 363.187L288.948 358.587L251.948 358.587L251.948 363.187Z" fill="white"/>
</g>
<g opacity="0.41">
<path opacity="0.41" d="M251.948 372.349L288.948 372.349L288.948 367.749L251.948 367.749L251.948 372.349Z" fill="white"/>
<path opacity="0.41" d="M251.948 381.897L288.948 381.897L288.948 377.297L251.948 377.297L251.948 381.897Z" fill="white"/>
<path opacity="0.41" d="M251.948 391.345L288.948 391.345L288.948 386.745L251.948 386.745L251.948 391.345Z" fill="white"/>
</g>
<g opacity="0.41">
<path opacity="0.41" d="M251.948 400.607L288.948 400.607L288.948 396.007L251.948 396.007L251.948 400.607Z" fill="white"/>
<path opacity="0.41" d="M251.948 410.055L288.948 410.055L288.948 405.455L251.948 405.455L251.948 410.055Z" fill="white"/>
<path opacity="0.41" d="M251.948 419.503L288.948 419.503L288.948 414.903L251.948 414.903L251.948 419.503Z" fill="white"/>
</g>
<g opacity="0.41">
<path opacity="0.41" d="M251.948 428.766L288.948 428.766L288.948 424.166L251.948 424.166L251.948 428.766Z" fill="white"/>
<path opacity="0.41" d="M251.948 438.214L288.948 438.214L288.948 433.614L251.948 433.614L251.948 438.214Z" fill="white"/>
<path opacity="0.41" d="M251.948 447.662L288.948 447.662L288.948 443.062L251.948 443.062L251.948 447.662Z" fill="white"/>
</g>
</g>
<g opacity="0.41">
<g opacity="0.41">
<path opacity="0.41" d="M241.583 344.191L246.683 344.191L246.683 339.591L241.583 339.591L241.583 344.191Z" fill="white"/>
<path opacity="0.41" d="M241.583 353.639L246.683 353.639L246.683 349.039L241.583 349.039L241.583 353.639Z" fill="white"/>
<path opacity="0.41" d="M241.583 363.187L246.683 363.187L246.683 358.587L241.583 358.587L241.583 363.187Z" fill="white"/>
</g>
<g opacity="0.41">
<path opacity="0.41" d="M241.583 372.349L246.683 372.349L246.683 367.749L241.583 367.749L241.583 372.349Z" fill="white"/>
<path opacity="0.41" d="M241.583 381.897L246.683 381.897L246.683 377.297L241.583 377.297L241.583 381.897Z" fill="white"/>
<path opacity="0.41" d="M241.583 391.345L246.683 391.345L246.683 386.745L241.583 386.745L241.583 391.345Z" fill="white"/>
</g>
<g opacity="0.41">
<path opacity="0.41" d="M241.583 400.607L246.683 400.607L246.683 396.007L241.583 396.007L241.583 400.607Z" fill="white"/>
<path opacity="0.41" d="M241.583 410.055L246.683 410.055L246.683 405.455L241.583 405.455L241.583 410.055Z" fill="white"/>
<path opacity="0.41" d="M241.583 419.503L246.683 419.503L246.683 414.903L241.583 414.903L241.583 419.503Z" fill="white"/>
</g>
<g opacity="0.41">
<path opacity="0.41" d="M241.583 428.766L246.683 428.766L246.683 424.166L241.583 424.166L241.583 428.766Z" fill="white"/>
<path opacity="0.41" d="M241.583 438.214L246.683 438.214L246.683 433.614L241.583 433.614L241.583 438.214Z" fill="white"/>
<path opacity="0.41" d="M241.583 447.662L246.683 447.662L246.683 443.062L241.583 443.062L241.583 447.662Z" fill="white"/>
</g>
</g>
<g opacity="0.41">
<g opacity="0.41">
<path opacity="0.41" d="M225.929 344.191L237.329 344.191L237.329 339.591L225.929 339.591L225.929 344.191Z" fill="white"/>
<path opacity="0.41" d="M225.929 353.639L237.329 353.639L237.329 349.039L225.929 349.039L225.929 353.639Z" fill="white"/>
<path opacity="0.41" d="M225.929 363.187L237.329 363.187L237.329 358.587L225.929 358.587L225.929 363.187Z" fill="white"/>
</g>
<g opacity="0.41">
<path opacity="0.41" d="M225.929 372.349L237.329 372.349L237.329 367.749L225.929 367.749L225.929 372.349Z" fill="white"/>
<path opacity="0.41" d="M225.929 381.897L237.329 381.897L237.329 377.297L225.929 377.297L225.929 381.897Z" fill="white"/>
<path opacity="0.41" d="M225.929 391.345L237.329 391.345L237.329 386.745L225.929 386.745L225.929 391.345Z" fill="white"/>
</g>
<g opacity="0.41">
<path opacity="0.41" d="M225.929 400.607L237.329 400.607L237.329 396.007L225.929 396.007L225.929 400.607Z" fill="white"/>
<path opacity="0.41" d="M225.929 410.055L237.329 410.055L237.329 405.455L225.929 405.455L225.929 410.055Z" fill="white"/>
<path opacity="0.41" d="M225.929 419.503L237.329 419.503L237.329 414.903L225.929 414.903L225.929 419.503Z" fill="white"/>
</g>
<g opacity="0.41">
<path opacity="0.41" d="M225.929 428.766L237.329 428.766L237.329 424.166L225.929 424.166L225.929 428.766Z" fill="white"/>
<path opacity="0.41" d="M225.929 438.214L237.329 438.214L237.329 433.614L225.929 433.614L225.929 438.214Z" fill="white"/>
<path opacity="0.41" d="M225.929 447.662L237.329 447.662L237.329 443.062L225.929 443.062L225.929 447.662Z" fill="white"/>
</g>
</g>
</g>
<path opacity="0.28" d="M271.214 463.126L280.414 463.126L280.414 454.326L271.214 454.326L271.214 463.126Z" fill="white"/>
<path opacity="0.28" d="M261.24 463.126L270.44 463.126L270.44 454.326L261.24 454.326L261.24 463.126Z" fill="white"/>
<path opacity="0.28" d="M246.772 458.711L255.972 458.711L255.972 454.311L246.772 454.311L246.772 458.711Z" fill="white"/>
<path opacity="0.28" d="M234.974 458.711L244.174 458.711L244.174 454.311L234.974 454.311L234.974 458.711Z" fill="white"/>
<path opacity="0.21" d="M225.88 334.453L288.88 334.453L288.88 329.653L225.88 329.653L225.88 334.453Z" fill="white"/>
<path opacity="0.21" d="M225.88 325.985L288.88 325.985L288.88 321.185L225.88 321.185L225.88 325.985Z" fill="white"/>
</g>
<path opacity="0.25" d="M276.9 314.2H230.2V304.1H266.8L276.9 314.2Z" fill="url(#paint12_radial)"/>
</g>
<g opacity="0.25">
<path opacity="0.25" d="M155.5 372.9V463.6H244.5V382C244.5 380.7 244.5 379.5 244.4 378.2C244.3 376.7 244.2 375.2 243.9 373.7C243.6 371.5 243.2 369.4 242.6 367.3C242.2 365.8 241.8 364.3 241.2 362.8C240.4 360.6 239.5 358.4 238.5 356.3C237.7 354.8 236.9 353.3 236 351.8C234.6 349.5 233 347.4 231.3 345.4C229.9 343.8 228.5 342.3 226.9 340.9C224.1 338.4 221 336.2 217.6 334.4C211.7 331.3 205.2 329.6 198.3 329.6H193.6C186.9 329.6 180.5 331.6 175 335.1C172.4 336.7 170.1 338.7 167.9 340.9C166.5 342.3 165.3 343.8 164.1 345.4C162.6 347.4 161.3 349.6 160.2 351.8C159.5 353.2 158.8 354.7 158.3 356.3C157.5 358.4 156.9 360.5 156.4 362.8C156.1 364.3 155.8 365.8 155.7 367.3C155.6 369.1 155.5 371 155.5 372.9Z" fill="url(#paint13_radial)"/>
<g opacity="0.22">
<path opacity="0.22" d="M185.9 356.3V362.8H241.2C240.4 360.6 239.5 358.4 238.5 356.3H185.9Z" fill="white"/>
<path opacity="0.22" d="M185.9 345.3V351.7H236C234.6 349.4 233 347.3 231.3 345.3H185.9Z" fill="white"/>
<path opacity="0.22" d="M185.9 334.4V340.9H226.9C224.1 338.4 221 336.2 217.6 334.4H185.9Z" fill="white"/>
<path opacity="0.22" d="M244.4 389.1H185.9V395.5H244.4V389.1Z" fill="white"/>
<path opacity="0.22" d="M185.9 378.1V384.6H244.4V381.9C244.4 380.6 244.4 379.4 244.3 378.1H185.9Z" fill="white"/>
<path opacity="0.22" d="M185.9 367.2V373.6H243.9C243.6 371.4 243.2 369.3 242.6 367.2H185.9Z" fill="white"/>
<path opacity="0.22" d="M244.4 400H185.9V406.5H244.4V400Z" fill="white"/>
<path opacity="0.22" d="M244.4 432.8H185.9V439.3H244.4V432.8Z" fill="white"/>
<path opacity="0.22" d="M244.4 421.9H185.9V428.3H244.4V421.9Z" fill="white"/>
<path opacity="0.22" d="M244.4 410.9H185.9V417.3H244.4V410.9Z" fill="white"/>
</g>
<g opacity="0.22">
<path opacity="0.22" d="M156.6 362.7H175.1V356.2H158.4C157.6 358.3 157 360.5 156.6 362.7Z" fill="white"/>
<path opacity="0.22" d="M160.3 351.8H175.1V345.4H164.2C162.8 347.3 161.5 349.5 160.3 351.8Z" fill="white"/>
<path opacity="0.22" d="M168 340.8H175.1V335C172.5 336.7 170.1 338.6 168 340.8Z" fill="white"/>
<path opacity="0.22" d="M175.1 389.1H155.5V395.5H175.1V389.1Z" fill="white"/>
<path opacity="0.22" d="M175.1 378.1H155.5V384.6H175.1V378.1Z" fill="white"/>
<path opacity="0.22" d="M155.5 372.9V373.7H175.1V367.3H155.8C155.6 369.1 155.5 371 155.5 372.9Z" fill="white"/>
<path opacity="0.22" d="M175.1 400H155.5V406.5H175.1V400Z" fill="white"/>
<path opacity="0.22" d="M175.1 432.8H155.5V439.3H175.1V432.8Z" fill="white"/>
<path opacity="0.22" d="M175.1 421.9H155.5V428.3H175.1V421.9Z" fill="white"/>
<path opacity="0.22" d="M175.1 410.9H155.5V417.3H175.1V410.9Z" fill="white"/>
</g>
<path opacity="0.34" d="M185.912 463.565L215.212 463.565L215.212 447.565L185.912 447.565L185.912 463.565Z" fill="white"/>
<g opacity="0.25">
<path opacity="0.34" d="M219.233 456.867L225.933 456.867L225.933 453.167L219.233 453.167L219.233 456.867Z" fill="white"/>
<path opacity="0.34" d="M219.233 451.205L225.933 451.205L225.933 447.505L219.233 447.505L219.233 451.205Z" fill="white"/>
<path opacity="0.34" d="M227.878 456.867L234.578 456.867L234.578 453.167L227.878 453.167L227.878 456.867Z" fill="white"/>
<path opacity="0.34" d="M227.878 451.205L234.578 451.205L234.578 447.505L227.878 447.505L227.878 451.205Z" fill="white"/>
</g>
<g opacity="0.25">
<path opacity="0.34" d="M165.831 456.867L172.531 456.867L172.531 453.167L165.831 453.167L165.831 456.867Z" fill="white"/>
<path opacity="0.34" d="M165.831 451.205L172.531 451.205L172.531 447.505L165.831 447.505L165.831 451.205Z" fill="white"/>
<path opacity="0.34" d="M174.476 456.867L181.176 456.867L181.176 453.167L174.476 453.167L174.476 456.867Z" fill="white"/>
<path opacity="0.34" d="M174.476 451.205L181.176 451.205L181.176 447.505L174.476 447.505L174.476 451.205Z" fill="white"/>
</g>
</g>
</g>
<path d="M638 335.8L646.3 324.3L627.8 261.8C622.8 266.3 617.6 271.3 612.4 276.8C607.2 282.2 602.3 287.6 597.9 292.8L617 364.9L638 335.8Z" fill="url(#paint14_radial)"/>
<path d="M559.6 355.4C548.9 386.2 554.3 411 572 427.1L578.4 418.3L559.6 355.4Z" fill="url(#paint15_radial)"/>
<path d="M723 218.3C723 218.3 713 216.4 695.7 221.2L697.2 253.9L723 218.3Z" fill="url(#paint16_radial)"/>
<path d="M723 218.3L697.2 253.9L679 279.1L726.4 275.3C733.4 237.2 723 218.3 723 218.3Z" fill="url(#paint17_radial)"/>
<path d="M616.9 364.9L609.2 375.6L681.6 375.5C688.5 365.6 695.4 354.3 702.1 341.6C702.9 340 703.8 338.4 704.6 336.8L638.1 335.7L616.9 364.9Z" fill="url(#paint18_radial)"/>
<path d="M646.3 324.3L638 335.8L704.5 336.9C716.8 312.7 723.3 292.2 726.4 275.4L679 279.2L646.3 324.3Z" fill="url(#paint19_radial)"/>
<path d="M646.3 324.3L638 335.8L704.5 336.9C716.8 312.7 723.3 292.2 726.4 275.4L679 279.2L646.3 324.3Z" fill="url(#paint20_radial)"/>
<path d="M578.4 418.2L572 427C602.9 444.5 643.5 430.1 681.6 375.4L609.2 375.5L578.4 418.2Z" fill="url(#paint21_radial)"/>
<path d="M578.4 418.2L572 427C602.9 444.5 643.5 430.1 681.6 375.4L609.2 375.5L578.4 418.2Z" fill="url(#paint22_radial)"/>
<path d="M679 279.1L697.2 253.9L695.7 221.2C679 225.9 655.6 236.8 627.9 261.8L646.4 324.3L679 279.1Z" fill="url(#paint23_radial)"/>
<path d="M679 279.1L697.2 253.9L695.7 221.2C679 225.9 655.6 236.8 627.9 261.8L646.4 324.3L679 279.1Z" fill="url(#paint24_radial)"/>
<path d="M609.2 375.6L616.9 364.9L597.8 292.8C578.5 315.5 566 336.6 559.5 355.4L578.3 418.3L609.2 375.6Z" fill="url(#paint25_radial)"/>
<path d="M609.2 375.6L616.9 364.9L597.8 292.8C578.5 315.5 566 336.6 559.5 355.4L578.3 418.3L609.2 375.6Z" fill="url(#paint26_radial)"/>
<path d="M170 463.8H269.3C269.3 463.8 259.2 430.9 243.9 441.6C228.6 452.3 220.7 410.1 190.5 426.2C160.3 442.3 170.2 455.8 140.2 447.6C110.2 439.4 110.1 463.8 110.1 463.8H170Z" fill="url(#paint27_radial)"/>
<path d="M176.9 463.8H231.2C231.2 463.8 225.7 450.4 217.3 454.8C208.9 459.2 204.6 442 188.1 448.5C171.6 455 177 460.5 160.6 457.2C144.2 453.9 144.2 463.8 144.2 463.8H176.9Z" fill="url(#paint28_radial)"/>
<path d="M610.7 467.3H827.2C827.2 467.3 817.1 447.5 795.5 455.2C773.9 462.9 777.6 422.2 746.3 423.8C715 425.5 724.4 464.5 676 428.8C627.6 393.1 604.4 421.6 592.6 443.1C580.8 464.6 566.2 437 552.3 444.2C538.4 451.4 535.8 467.3 535.8 467.3H610.7Z" fill="url(#paint29_radial)"/>
<path d="M633.5 467.8H702.9C702.9 467.8 695.8 444.8 685.1 452.3C674.4 459.8 668.9 430.3 647.8 441.5C626.7 452.7 633.6 462.2 612.6 456.4C591.6 450.6 591.6 467.7 591.6 467.7H633.5V467.8Z" fill="url(#paint30_radial)"/>
<path d="M595.1 467H459.7C451.9 467 445.6 460.6 445.6 452.9V178C445.6 170.2 452 163.9 459.7 163.9H595C602.8 163.9 609.1 170.3 609.1 178V453C609.2 460.7 602.8 467 595.1 467Z" fill="white"/>
<path d="M600.2 181.8H454.6V446.8H600.2V181.8Z" fill="url(#paint31_radial)"/>
<path d="M600.2 181.8H454.6V446.8H600.2V181.8Z" fill="url(#paint32_linear)"/>
<g opacity="0.24">
<path opacity="0.24" d="M588.2 181.8L530 235.5L471.8 181.8H588.2Z" fill="url(#paint33_linear)"/>
<path opacity="0.24" d="M600.2 188.9V300.2L539.8 244.5L600.2 188.9Z" fill="url(#paint34_linear)"/>
<path opacity="0.24" d="M600.2 312.6V366.9L568.7 396L472.2 306.9L533.1 250.8L600.2 312.6Z" fill="url(#paint35_linear)"/>
<path opacity="0.24" d="M600.2 381.6V427.4L575.4 404.5L600.2 381.6Z" fill="url(#paint36_radial)"/>
<path opacity="0.24" d="M526 369.6L465.1 425.8L454.6 416.1V303.7L526 369.6Z" fill="url(#paint37_linear)"/>
<path opacity="0.24" d="M595.1 433.4L580.6 446.8H487.9L473.3 433.4L534.2 377.2L595.1 433.4Z" fill="url(#paint38_linear)"/>
<path opacity="0.24" d="M523.3 241.7L462.4 297.9L454.6 290.7V192.6L462.4 185.5L523.3 241.7Z" fill="url(#paint39_linear)"/>
</g>
<path d="M655.4 147.3C655.4 109.9 624.8 79.6001 587.3 80.1001C551.1 80.6001 521.5 110.2 521.1 146.4C520.9 161.9 526 176.2 534.6 187.7L588.2 259.4L641.8 187.7C650.4 176.5 655.4 162.5 655.4 147.3Z" fill="url(#paint40_linear)"/>
<path d="M588.1 179.8C603.84 179.8 616.6 167.04 616.6 151.3C616.6 135.56 603.84 122.8 588.1 122.8C572.36 122.8 559.6 135.56 559.6 151.3C559.6 167.04 572.36 179.8 588.1 179.8Z" fill="white"/>
<path opacity="0.18" d="M84.7001 506.1H41.0001C38.9001 506.1 37.1001 506.8 37.1001 507.7V509.5C37.1001 510.4 38.8001 511.1 41.0001 511.1H84.7001C86.8001 511.1 88.6001 510.4 88.6001 509.5V507.7C88.6001 506.8 86.8001 506.1 84.7001 506.1Z" fill="#29ABE2"/>
<path opacity="0.26" d="M150.7 506.1H107C104.9 506.1 103.1 506.8 103.1 507.7V509.5C103.1 510.4 104.8 511.1 107 511.1H150.7C152.8 511.1 154.6 510.4 154.6 509.5V507.7C154.6 506.8 152.9 506.1 150.7 506.1Z" fill="#29ABE2"/>
<path opacity="0.4" d="M218.8 506.1H175.1C173 506.1 171.2 506.8 171.2 507.7V509.5C171.2 510.4 172.9 511.1 175.1 511.1H218.8C220.9 511.1 222.7 510.4 222.7 509.5V507.7C222.6 506.8 220.9 506.1 218.8 506.1Z" fill="#29ABE2"/>
<path opacity="0.52" d="M294.1 506.1H250.4C248.3 506.1 246.5 506.8 246.5 507.7V509.5C246.5 510.4 248.2 511.1 250.4 511.1H294.1C296.2 511.1 298 510.4 298 509.5V507.7C298 506.8 296.2 506.1 294.1 506.1Z" fill="#29ABE2"/>
<path opacity="0.79" d="M360.1 506.1H316.4C314.3 506.1 312.5 506.8 312.5 507.7V509.5C312.5 510.4 314.2 511.1 316.4 511.1H360.1C362.2 511.1 364 510.4 364 509.5V507.7C364 506.8 362.3 506.1 360.1 506.1Z" fill="#29ABE2"/>
<path opacity="0.84" d="M428.2 506.1H384.5C382.4 506.1 380.6 506.8 380.6 507.7V509.5C380.6 510.4 382.3 511.1 384.5 511.1H428.2C430.3 511.1 432.1 510.4 432.1 509.5V507.7C432 506.8 430.3 506.1 428.2 506.1Z" fill="#29ABE2"/>
<path opacity="0.84" d="M500.9 506.1H457.2C455.1 506.1 453.3 506.8 453.3 507.7V509.5C453.3 510.4 455 511.1 457.2 511.1H500.9C503 511.1 504.8 510.4 504.8 509.5V507.7C504.7 506.8 503 506.1 500.9 506.1Z" fill="#29ABE2"/>
<path opacity="0.79" d="M566.9 506.1H523.2C521.1 506.1 519.3 506.8 519.3 507.7V509.5C519.3 510.4 521 511.1 523.2 511.1H566.9C569 511.1 570.8 510.4 570.8 509.5V507.7C570.8 506.8 569 506.1 566.9 506.1Z" fill="#29ABE2"/>
<path opacity="0.52" d="M634.9 506.1H591.2C589.1 506.1 587.3 506.8 587.3 507.7V509.5C587.3 510.4 589 511.1 591.2 511.1H634.9C637 511.1 638.8 510.4 638.8 509.5V507.7C638.8 506.8 637.1 506.1 634.9 506.1Z" fill="#29ABE2"/>
<path opacity="0.4" d="M710.3 506.1H666.6C664.5 506.1 662.7 506.8 662.7 507.7V509.5C662.7 510.4 664.4 511.1 666.6 511.1H710.3C712.4 511.1 714.2 510.4 714.2 509.5V507.7C714.1 506.8 712.4 506.1 710.3 506.1Z" fill="#29ABE2"/>
<path opacity="0.26" d="M776.3 506.1H732.6C730.5 506.1 728.7 506.8 728.7 507.7V509.5C728.7 510.4 730.4 511.1 732.6 511.1H776.3C778.4 511.1 780.2 510.4 780.2 509.5V507.7C780.2 506.8 778.4 506.1 776.3 506.1Z" fill="#29ABE2"/>
<path opacity="0.18" d="M844.3 506.1H800.6C798.5 506.1 796.7 506.8 796.7 507.7V509.5C796.7 510.4 798.4 511.1 800.6 511.1H844.3C846.4 511.1 848.2 510.4 848.2 509.5V507.7C848.2 506.8 846.5 506.1 844.3 506.1Z" fill="#29ABE2"/>
<path d="M431.8 403.5L430.8 402.5L460.3 373L462.2 373.1L431.8 403.5Z" fill="url(#paint41_radial)"/>
<path d="M516.6 372.6H408.9V375H516.6V372.6Z" fill="url(#paint42_radial)"/>
<path d="M259.5 321.4L256 314.9L260.7 307.4L266.6 319.5L259.5 321.4Z" fill="url(#paint43_radial)"/>
<path d="M220.3 500.9C236.703 500.9 250 487.603 250 471.2C250 454.797 236.703 441.5 220.3 441.5C203.897 441.5 190.6 454.797 190.6 471.2C190.6 487.603 203.897 500.9 220.3 500.9Z" fill="#2D2727"/>
<path d="M220.3 488.9C230.076 488.9 238 480.975 238 471.2C238 461.425 230.076 453.5 220.3 453.5C210.525 453.5 202.6 461.425 202.6 471.2C202.6 480.975 210.525 488.9 220.3 488.9Z" fill="#D8D2C2"/>
<path d="M220.3 483.4C222.454 483.4 224.2 481.654 224.2 479.5C224.2 477.346 222.454 475.6 220.3 475.6C218.146 475.6 216.4 477.346 216.4 479.5C216.4 481.654 218.146 483.4 220.3 483.4Z" fill="#AFAFAF"/>
<path d="M220.3 466.8C222.454 466.8 224.2 465.054 224.2 462.9C224.2 460.746 222.454 459 220.3 459C218.146 459 216.4 460.746 216.4 462.9C216.4 465.054 218.146 466.8 220.3 466.8Z" fill="#AFAFAF"/>
<path d="M228.6 475.1C230.754 475.1 232.5 473.354 232.5 471.2C232.5 469.046 230.754 467.3 228.6 467.3C226.446 467.3 224.7 469.046 224.7 471.2C224.7 473.354 226.446 475.1 228.6 475.1Z" fill="#AFAFAF"/>
<path d="M212 475.1C214.154 475.1 215.9 473.354 215.9 471.2C215.9 469.046 214.154 467.3 212 467.3C209.846 467.3 208.1 469.046 208.1 471.2C208.1 473.354 209.846 475.1 212 475.1Z" fill="#AFAFAF"/>
<path d="M254 471.2H186.6C186.9 467.5 187.8 463.9 189.2 460.7C194.4 448.7 206.3 440.3 220.3 440.3C234.2 440.3 246.2 448.7 251.4 460.7C252.8 463.9 253.7 467.5 254 471.2Z" fill="url(#paint44_radial)"/>
<path d="M254 471.2H186.6C186.9 467.5 187.8 463.9 189.2 460.7H251.3C252.8 463.9 253.7 467.5 254 471.2Z" fill="url(#paint45_radial)"/>
<path d="M425.4 501.4C442.079 501.4 455.6 487.879 455.6 471.2C455.6 454.521 442.079 441 425.4 441C408.721 441 395.2 454.521 395.2 471.2C395.2 487.879 408.721 501.4 425.4 501.4Z" fill="#2D2727"/>
<path d="M425.4 489.2C435.341 489.2 443.4 481.141 443.4 471.2C443.4 461.259 435.341 453.2 425.4 453.2C415.459 453.2 407.4 461.259 407.4 471.2C407.4 481.141 415.459 489.2 425.4 489.2Z" fill="#D8D2C2"/>
<path d="M425.4 483.6C427.609 483.6 429.4 481.809 429.4 479.6C429.4 477.391 427.609 475.6 425.4 475.6C423.191 475.6 421.4 477.391 421.4 479.6C421.4 481.809 423.191 483.6 425.4 483.6Z" fill="#AFAFAF"/>
<path d="M425.4 466.7C427.609 466.7 429.4 464.909 429.4 462.7C429.4 460.491 427.609 458.7 425.4 458.7C423.191 458.7 421.4 460.491 421.4 462.7C421.4 464.909 423.191 466.7 425.4 466.7Z" fill="#AFAFAF"/>
<path d="M433.9 475.2C436.109 475.2 437.9 473.409 437.9 471.2C437.9 468.991 436.109 467.2 433.9 467.2C431.691 467.2 429.9 468.991 429.9 471.2C429.9 473.409 431.691 475.2 433.9 475.2Z" fill="#AFAFAF"/>
<path d="M417 475.2C419.209 475.2 421 473.409 421 471.2C421 468.991 419.209 467.2 417 467.2C414.791 467.2 413 468.991 413 471.2C413 473.409 414.791 475.2 417 475.2Z" fill="#AFAFAF"/>
<path d="M432.8 391.2V404.9H423.3V466.9H381.5C391 476.9 381.5 480.8 381.5 480.8H274.3V462.8C283.7 464.2 319 468.2 339.2 454.5C362.6 438.6 352.6 409.7 339.2 403.7C325.8 397.7 326.3 391.7 326.3 391.7L432.8 391.2Z" fill="url(#paint46_radial)"/>
<path d="M425.4 372.5C425.4 376.8 423.4 380.6 420.3 383C418 384.8 415.2 385.8 412.1 385.8H339.1C336.1 385.8 333.4 384.7 331.2 383C330.9 382.7 330.6 382.5 330.3 382.2C328 379.9 326.6 376.8 326.6 373.4L413.9 362.4C414.3 362.3 414.8 362.3 415.2 362.3C420.8 362.2 425.4 366.7 425.4 372.5Z" fill="url(#paint47_radial)"/>
<path d="M425.4 372.5C425.4 376.8 423.4 380.6 420.3 383H331.2C330.9 382.7 330.6 382.5 330.3 382.2C328 379.9 326.6 376.8 326.6 373.4L413.9 362.4C414.3 362.3 414.8 362.3 415.2 362.3C420.8 362.2 425.4 366.7 425.4 372.5Z" fill="url(#paint48_radial)"/>
<path d="M317.2 452.8C317.1 453.3 316.9 453.7 316.7 454.2L307.3 454.6L307.1 452.9L295.6 372.1L317 366.1L317.7 367.4C317.7 367.4 331.1 410.5 317.2 452.8Z" fill="url(#paint49_radial)"/>
<path d="M307.5 457.4C307.5 457.4 303.3 462.9 296.3 462C289.3 461.1 283.5 463.8 283.1 468.9H307.6L311.4 467.3V468.9H318.2C318.2 468.9 320.5 463.6 315.3 457.5L307.5 457.4Z" fill="url(#paint50_linear)"/>
<path d="M318.2 452.8H306.4V457.3H318.2V452.8Z" fill="url(#paint51_radial)"/>
<path d="M323.1 383.7C341.2 405.9 336 445.3 334.4 454.6C334.2 455.9 334 456.6 334 456.6H324.5L300.7 368.2L381.8 347.7H381.9L403.6 343.6C408.4 342.7 413.3 345 415.2 349C417.8 354.5 418.7 357.3 418.7 363.5C418.9 374.3 323.1 383.7 323.1 383.7Z" fill="url(#paint52_radial)"/>
<path opacity="0.11" d="M323.1 383.7C341.2 405.9 336 445.3 334.4 454.6H328.2L310.9 374.7L398.3 352.2L415.3 349C417.9 354.5 418.8 357.3 418.8 363.5C418.9 374.3 323.1 383.7 323.1 383.7Z" fill="url(#paint53_radial)"/>
<path d="M348.6 269.8L362.6 266.4L333 231.5L328.2 244.2L342.4 271.3C342.4 271.3 347.2 304.5 380 340.5L387.7 343.3L348.6 269.8Z" fill="url(#paint54_linear)"/>
<path d="M323.2 234.3L323.5 253.1C323.5 253.1 332.6 254.6 336 248.7C339.4 242.8 337.2 230 337.2 230C337.2 230 324.1 221.9 323.2 234.3Z" fill="url(#paint55_linear)"/>
<path opacity="0.11" d="M323.2 236.4V237.8L328.2 238.3L336.3 233.8L323.2 236.4Z" fill="black"/>
<path d="M343.5 243.9C343.5 243.9 336.5 242.4 335.5 233.6C335.4 232.4 334.9 231.3 334.8 230.3C334.8 230.3 326.6 233.1 322.5 231.4C322.5 230.4 322.5 229.5 322.7 228.7H323.5C323.3 228.7 323.1 228.6 322.7 228.6C322.9 227.2 323.3 226.1 323.9 225.1C324.6 225 325.3 224.9 326.3 224.8C333.2 223.8 338 226.2 338.2 228.8C338.2 228.8 341.5 228 342 233.5C342.1 236 341.9 239.5 343.5 243.9Z" fill="url(#paint56_radial)"/>
<path d="M337.9 240.2V236.7C337.9 236.7 342.9 236.7 337.6 242.6L337.9 240.2Z" fill="url(#paint57_linear)"/>
<path d="M356.9 259.6L342.4 271.3C342.4 271.3 337.5 294.7 346.6 309.4C355.7 324.1 378.4 348.7 381.9 347.6C385.4 346.5 425.6 369.4 418.9 353.7L395.4 308.6L377.1 271.4C374.5 267.1 370.2 263.8 365 262.2L356.9 259.6Z" fill="url(#paint58_radial)"/>
<path opacity="0.11" d="M375.9 287.5L361.1 328.6C361.1 328.6 351.6 317.2 348.3 312.2L375.9 287.5Z" fill="url(#paint59_radial)"/>
<path d="M355.2 257.7L342.4 271.3L350.9 277.1L359.5 260L355.2 257.7Z" fill="url(#paint60_radial)"/>
<path d="M324.4 459.2C324.4 459.2 320.2 464.7 313.2 463.7C306.2 462.8 300.4 465.5 300 470.6H324.5L328.3 469V470.6H335.1C335.1 470.6 337.4 465.3 332.2 459.1H324.4V459.2Z" fill="url(#paint61_linear)"/>
<path d="M335.1 454.6H323.3V459.1H335.1V454.6Z" fill="url(#paint62_radial)"/>
<path d="M341.9 233.5L335.5 233.6L322.6 233.7C322.5 232.9 322.5 232.1 322.5 231.4C322.5 230.4 322.5 229.5 322.7 228.7V228.6C322.9 227.2 323.3 226.1 323.9 225.1C325.5 222.7 328.6 222 333.7 223C342.3 224.7 341.9 232.9 341.9 233.5Z" fill="url(#paint63_radial)"/>
<path d="M337.6 233.5L327.8 237C327.8 237 316.6 235.1 314.4 235.9L322.5 233C322.5 233.1 325.1 231.9 337.6 233.5Z" fill="url(#paint64_radial)"/>
<path d="M375.9 287.5C375.9 287.5 371.8 292.5 365.2 298.7C358.2 305.3 348.3 313.3 337.6 318C316.9 327.1 270.7 311.8 270.7 311.8V307.4C308.6 298.5 323.3 308.5 323.3 308.5C332 299 342.4 289.4 350.6 282.3C358.7 275.3 364.7 270.6 364.7 270.6C377.8 266.4 375.9 287.5 375.9 287.5Z" fill="url(#paint65_linear)"/>
<path d="M375.9 287.5C375.9 287.5 371.8 292.5 365.2 298.7L350.7 282.4C358.8 275.4 364.8 270.7 364.8 270.7C377.8 266.4 375.9 287.5 375.9 287.5Z" fill="url(#paint66_radial)"/>
<path d="M270.8 307.4L265.3 304.2C265.3 304.2 260.6 302.8 260.8 307.4C261 312 264.3 314.4 264.3 314.4H266.4L265 312L270.9 311.9V307.4H270.8Z" fill="url(#paint67_linear)"/>
<path d="M413.6 385.8H338.4V391.3H413.6V385.8Z" fill="url(#paint68_radial)"/>
<path d="M368.7 466.9H474.4C474.4 466.9 461.4 407 409.8 404.9C358.2 402.8 368.7 466.9 368.7 466.9Z" fill="#E53329"/>
<path d="M274.3 462.8L238.3 429.2L266.6 319.5L259.5 321.4L220.3 433.8L274.3 480.9V462.8Z" fill="url(#paint69_radial)"/>
<path d="M378.7 461H464.1C464.1 461 453.6 412.6 411.9 410.9C370.2 409.2 378.7 461 378.7 461Z" fill="url(#paint70_radial)"/>
<path d="M347.9 284.7L363.4 300.9L365.3 298.6L350.7 282.3L347.9 284.7Z" fill="url(#paint71_radial)"/>
<path opacity="0.11" d="M347.9 284.7L363.4 300.9L359.5 303.8L347.1 285.5L347.9 284.7Z" fill="url(#paint72_radial)"/>
<path d="M240.5 317.9C245.636 317.9 249.8 313.736 249.8 308.6C249.8 303.464 245.636 299.3 240.5 299.3C235.364 299.3 231.2 303.464 231.2 308.6C231.2 313.736 235.364 317.9 240.5 317.9Z" fill="white"/>
<path d="M260.7 308.6C260.7 315.8 253.1 321.8 242.9 323.2V294.1C253.1 295.5 260.7 301.5 260.7 308.6Z" fill="url(#paint73_radial)"/>
<path d="M242.9 291.9H237.9V325.3H242.9V291.9Z" fill="url(#paint74_radial)"/>
<path d="M237.9 298.5L86.8 239.5V349L237.9 316.8V298.5Z" fill="url(#paint75_linear)"/>
<path d="M264.9 311.9L267.8 317.9H272.2C273.4 317.9 274.2 316.5 273.4 315.5L270.7 311.7L264.9 311.9Z" fill="url(#paint76_radial)"/>
<path d="M271.1 320.8C272.867 320.8 274.3 319.367 274.3 317.6C274.3 315.833 272.867 314.4 271.1 314.4C269.333 314.4 267.9 315.833 267.9 317.6C267.9 319.367 269.333 320.8 271.1 320.8Z" fill="url(#paint77_radial)"/>
<path d="M474.4 474.4V482C474.4 483.6 473 485 471.2 485.2C471 485.2 470.8 485.2 470.6 485.2H424C421.9 485.2 420.1 483.7 420.1 481.9L411.3 479.6H384.1C383.1 479.6 382.4 478.9 382.4 478.1C382.4 477.3 383.2 476.6 384.1 476.6H411.3L420.1 474.3C420.1 472.5 421.8 471 424 471H470.5C470.7 471 470.9 471 471.1 471C473 471.4 474.4 472.7 474.4 474.4Z" fill="url(#paint78_radial)"/>
<path d="M474.4 478.2V482C474.4 483.6 473 485 471.2 485.2C471 485.2 470.8 485.2 470.6 485.2H424C421.9 485.2 420.1 483.7 420.1 481.9L411.3 479.6H384.1C383.1 479.6 382.4 478.9 382.4 478.1H474.4V478.2Z" fill="url(#paint79_radial)"/>
<path d="M474.4 474.4V482C474.4 483.6 473 485 471.2 485.2V471.1C473 471.4 474.4 472.7 474.4 474.4Z" fill="url(#paint80_radial)"/>
<path d="M457.9 480.2H441.4C440.5 480.2 439.8 479.5 439.8 478.6V477.6C439.8 476.7 440.5 476 441.4 476H457.9C458.8 476 459.5 476.7 459.5 477.6V478.6C459.5 479.5 458.8 480.2 457.9 480.2Z" fill="url(#paint81_radial)"/>
<path d="M387.7 475.1H343.5V480.9H387.7V475.1Z" fill="url(#paint82_radial)"/>
<path d="M452.1 444.8H434.7C434.5 444.8 434.3 444.6 434.3 444.4V444.2C434.3 444 434.5 443.8 434.7 443.8H452.1C452.3 443.8 452.5 444 452.5 444.2V444.4C452.5 444.6 452.3 444.8 452.1 444.8Z" fill="url(#paint83_radial)"/>
<path d="M452.1 447.8H434.7C434.5 447.8 434.3 447.6 434.3 447.4V447.2C434.3 447 434.5 446.8 434.7 446.8H452.1C452.3 446.8 452.5 447 452.5 447.2V447.4C452.5 447.6 452.3 447.8 452.1 447.8Z" fill="url(#paint84_radial)"/>
<path d="M452.1 450.7H434.7C434.5 450.7 434.3 450.5 434.3 450.3V450.1C434.3 449.9 434.5 449.7 434.7 449.7H452.1C452.3 449.7 452.5 449.9 452.5 450.1V450.3C452.5 450.5 452.3 450.7 452.1 450.7Z" fill="url(#paint85_radial)"/>
<path d="M452.1 453.7H434.7C434.5 453.7 434.3 453.5 434.3 453.3V453C434.3 452.8 434.5 452.6 434.7 452.6H452.1C452.3 452.6 452.5 452.8 452.5 453V453.2C452.5 453.5 452.3 453.7 452.1 453.7Z" fill="url(#paint86_radial)"/>
<path d="M510.1 295.9H428.2V372.6H510.1V295.9Z" fill="url(#paint87_linear)"/>
<path d="M525.9 295.9H510.1V372.6H525.9V295.9Z" fill="url(#paint88_linear)"/>
<path opacity="0.25" d="M504.1 349H485.6V365.7H504.1V349Z" fill="white"/>
<path opacity="0.25" d="M452.6 349H434.1V350.7H452.6V349Z" fill="white"/>
<path opacity="0.25" d="M452.6 352.6H434.1V354.3H452.6V352.6Z" fill="white"/>
<path opacity="0.25" d="M445 356.5H434.1V358.2H445V356.5Z" fill="white"/>
<path d="M510.1 289.7H425.4V295.9H510.1V289.7Z" fill="url(#paint89_linear)"/>
<path d="M527.4 289.7H510.1V295.9H527.4V289.7Z" fill="url(#paint90_linear)"/>
<path d="M500.5 221.8H427.9V289.8H500.5V221.8Z" fill="url(#paint91_linear)"/>
<path d="M514.5 221.8H500.5V289.8H514.5V221.8Z" fill="url(#paint92_linear)"/>
<path opacity="0.25" d="M495.2 268.9H478.8V283.7H495.2V268.9Z" fill="white"/>
<path opacity="0.25" d="M449.5 268.9H433.1V270.4H449.5V268.9Z" fill="white"/>
<path opacity="0.25" d="M449.5 272.1H433.1V273.6H449.5V272.1Z" fill="white"/>
<path opacity="0.25" d="M442.7 275.6H433.1V277.1H442.7V275.6Z" fill="white"/>
<path d="M500.5 216.3H425.4V221.8H500.5V216.3Z" fill="url(#paint93_linear)"/>
<path d="M515.8 216.3H500.5V221.8H515.8V216.3Z" fill="url(#paint94_linear)"/>
<path d="M420.9 127.2C455.197 127.2 483 99.3969 483 65.1C483 30.8031 455.197 3 420.9 3C386.603 3 358.8 30.8031 358.8 65.1C358.8 99.3969 386.603 127.2 420.9 127.2Z" fill="url(#paint95_radial)"/>
<path d="M449.2 38.2H399.2V41.7999H449.2V38.2Z" fill="white"/>
<path d="M453.8 83.6C453.4 82.3 452.1 81.4 450.8 81.6C450.7 81.6 450.5 81.7 450.4 81.7L433.5 86.2C433.5 86.5 433.4 86.8 433.3 87.1C432.6 89.5 430.5 91.2 428 91.2C427.5 91.2 427 91.1 426.6 91L414.8 87.8C414.3 87.7 413.9 87.3 413.8 86.8C413.7 86.3 413.8 85.8 414.2 85.4C414.6 85 415.1 84.9 415.6 85.1L427.4 88.3C427.6 88.4 427.9 88.4 428.1 88.4C429.4 88.4 430.4 87.6 430.8 86.3C430.9 86.1 430.9 85.9 430.9 85.6C430.9 85.5 430.9 85.5 430.9 85.4C430.9 85.3 430.9 85.3 430.8 85.2C430.7 84.1 429.9 83.1 428.8 82.8L410.1 77.8C409.3 77.6 408.4 77.5 407.6 77.5H395.2C391.9 77.5 388.7 78.6 386 80.6L385.4 81V92.1L386 92.5C388.6 94.5 391.9 95.6 395.2 95.6H418C419.3 95.6 420.7 95.4 422 95.1L452 87.1C453.2 86.8 454.1 85.7 454.1 84.4C453.9 84.1 453.9 83.8 453.8 83.6Z" fill="white"/>
<path d="M399.2 45.5999V73.3999H407.5C408.6 73.3999 409.7 73.4999 410.7 73.7999L429.4 78.7999C431.1 79.2999 432.4 80.3999 433.1 81.9999L449.2 77.6999V45.5999H399.2ZM445.9 71.9999H431.8V65.5999H445.9V71.9999Z" fill="white"/>
<path d="M194.5 281C219.408 281 239.6 260.808 239.6 235.9C239.6 210.992 219.408 190.8 194.5 190.8C169.592 190.8 149.4 210.992 149.4 235.9C149.4 260.808 169.592 281 194.5 281Z" fill="url(#paint96_radial)"/>
<path d="M194.4 214.3C188.4 214.4 183.5 219.1 183.4 224.8C183.4 227.3 184.2 229.5 185.6 231.3L188.5 235.1L191 238.3L194.4 242.6L197.8 238.3L200.3 235.1L203.2 231.3C204.6 229.5 205.4 227.3 205.4 224.9C205.6 219 200.6 214.3 194.4 214.3ZM194.5 230.1C191.9 230.1 189.8 228.1 189.8 225.6C189.8 223.1 191.9 221.1 194.5 221.1C197.1 221.1 199.2 223.1 199.2 225.6C199.2 228.1 197.1 230.1 194.5 230.1Z" fill="white"/>
<path d="M218.3 251.9C218 252.4 217.5 252.6 216.9 252.6H172.1C171.5 252.6 171 252.3 170.7 251.9C170.4 251.4 170.3 250.9 170.6 250.4L177.3 236.2C177.6 235.6 178.2 235.2 178.8 235.2H184L186.1 237.9L186.5 238.4H179.9L174.8 249.4H214.3L209.2 238.4H202.6L203 237.9L205.1 235.2H210.3C211 235.2 211.6 235.6 211.8 236.2L218.5 250.4C218.7 250.8 218.7 251.4 218.3 251.9Z" fill="white"/>
</g>
<defs>
<radialGradient id="paint0_radial" cx="0" cy="0" r="1" gradientUnits="userSpaceOnUse" gradientTransform="translate(645.89 518.674) scale(691.861 731.016)">
<stop offset="0.00263467" stop-color="#FFF6A6" stop-opacity="0.14"/>
<stop offset="1" stop-color="#10488C"/>
</radialGradient>
<radialGradient id="paint1_radial" cx="0" cy="0" r="1" gradientUnits="userSpaceOnUse" gradientTransform="translate(773.943 300.828) rotate(180) scale(276.183 246.742)">
<stop stop-color="#219DDB"/>
<stop offset="0.5071" stop-color="#219DDB"/>
<stop offset="1" stop-color="#10488C"/>
</radialGradient>
<radialGradient id="paint2_radial" cx="0" cy="0" r="1" gradientUnits="userSpaceOnUse" gradientTransform="translate(786.353 270.579) rotate(180) scale(127.406)">
<stop stop-color="#219DDB"/>
<stop offset="0.5071" stop-color="#219DDB"/>
<stop offset="1" stop-color="#10488C"/>
</radialGradient>
<radialGradient id="paint3_radial" cx="0" cy="0" r="1" gradientUnits="userSpaceOnUse" gradientTransform="translate(705.67 256.073) rotate(180) scale(350.641 313.262)">
<stop stop-color="#219DDB"/>
<stop offset="0.5071" stop-color="#219DDB"/>
<stop offset="1" stop-color="#10488C"/>
</radialGradient>
<radialGradient id="paint4_radial" cx="0" cy="0" r="1" gradientUnits="userSpaceOnUse" gradientTransform="translate(802.98 189.731) rotate(180) scale(306.512 306.513)">
<stop stop-color="#219DDB"/>
<stop offset="0.5071" stop-color="#219DDB"/>
<stop offset="1" stop-color="#10488C"/>
</radialGradient>
<radialGradient id="paint5_radial" cx="0" cy="0" r="1" gradientUnits="userSpaceOnUse" gradientTransform="translate(752.448 165.123) rotate(180) scale(207.641 207.641)">
<stop stop-color="#219DDB"/>
<stop offset="0.5071" stop-color="#219DDB"/>
<stop offset="1" stop-color="#10488C"/>
</radialGradient>
<radialGradient id="paint6_radial" cx="0" cy="0" r="1" gradientUnits="userSpaceOnUse" gradientTransform="translate(757.767 360.563) scale(176.801 157.954)">
<stop stop-color="#219DDB"/>
<stop offset="0.5071" stop-color="#219DDB"/>
<stop offset="1" stop-color="#10488C"/>
</radialGradient>
<radialGradient id="paint7_radial" cx="0" cy="0" r="1" gradientUnits="userSpaceOnUse" gradientTransform="translate(475.86 171.238) rotate(180) scale(428.911 434.701)">
<stop stop-color="#219DDB"/>
<stop offset="0.5071" stop-color="#219DDB"/>
<stop offset="1" stop-color="#10488C"/>
</radialGradient>
<radialGradient id="paint8_radial" cx="0" cy="0" r="1" gradientUnits="userSpaceOnUse" gradientTransform="translate(364.196 282.243) rotate(180) scale(266.117 269.709)">
<stop stop-color="#219DDB"/>
<stop offset="0.5071" stop-color="#219DDB"/>
<stop offset="1" stop-color="#10488C"/>
</radialGradient>
<radialGradient id="paint9_radial" cx="0" cy="0" r="1" gradientUnits="userSpaceOnUse" gradientTransform="translate(438.049 225.133) rotate(180) scale(232.626 263.891)">
<stop stop-color="#219DDB"/>
<stop offset="0.5071" stop-color="#219DDB"/>
<stop offset="1" stop-color="#10488C"/>
</radialGradient>
<radialGradient id="paint10_radial" cx="0" cy="0" r="1" gradientUnits="userSpaceOnUse" gradientTransform="translate(399.698 203.947) rotate(180) scale(157.588 178.767)">
<stop stop-color="#219DDB"/>
<stop offset="0.5071" stop-color="#219DDB"/>
<stop offset="1" stop-color="#10488C"/>
</radialGradient>
<radialGradient id="paint11_radial" cx="0" cy="0" r="1" gradientUnits="userSpaceOnUse" gradientTransform="translate(292.959 310.081) rotate(180) scale(224.377 227.406)">
<stop stop-color="#219DDB"/>
<stop offset="0.5071" stop-color="#219DDB"/>
<stop offset="1" stop-color="#10488C"/>
</radialGradient>
<radialGradient id="paint12_radial" cx="0" cy="0" r="1" gradientUnits="userSpaceOnUse" gradientTransform="translate(303.041 282.21) rotate(180) scale(103.507 117.419)">
<stop stop-color="#219DDB"/>
<stop offset="0.5071" stop-color="#219DDB"/>
<stop offset="1" stop-color="#10488C"/>
</radialGradient>
<radialGradient id="paint13_radial" cx="0" cy="0" r="1" gradientUnits="userSpaceOnUse" gradientTransform="translate(557.677 28.8001) rotate(180) scale(643.515 730.003)">
<stop offset="0.5071" stop-color="#219DDB"/>
<stop offset="1" stop-color="#10488C"/>
</radialGradient>
<radialGradient id="paint14_radial" cx="0" cy="0" r="1" gradientUnits="userSpaceOnUse" gradientTransform="translate(515.289 168.075) rotate(8.89906) scale(308.704 308.704)">
<stop offset="0.00263467" stop-color="#FFF6A6"/>
<stop offset="0.3545" stop-color="#64B8CB"/>
<stop offset="0.5071" stop-color="#219DDB"/>
<stop offset="1" stop-color="#10488C"/>
</radialGradient>
<radialGradient id="paint15_radial" cx="0" cy="0" r="1" gradientUnits="userSpaceOnUse" gradientTransform="translate(379.612 93.4381) rotate(8.89904) scale(416.019 416.019)">
<stop offset="0.00263467" stop-color="#FFF6A6"/>
<stop offset="0.3545" stop-color="#64B8CB"/>
<stop offset="0.5071" stop-color="#219DDB"/>
<stop offset="1" stop-color="#10488C"/>
</radialGradient>
<radialGradient id="paint16_radial" cx="0" cy="0" r="1" gradientUnits="userSpaceOnUse" gradientTransform="translate(713.698 135.859) rotate(8.89906) scale(280.532)">
<stop offset="0.00263467" stop-color="#FFF6A6"/>
<stop offset="0.3545" stop-color="#64B8CB"/>
<stop offset="0.5071" stop-color="#219DDB"/>
<stop offset="1" stop-color="#10488C"/>
</radialGradient>
<radialGradient id="paint17_radial" cx="0" cy="0" r="1" gradientUnits="userSpaceOnUse" gradientTransform="translate(874.092 264.101) rotate(8.89905) scale(364.515)">
<stop offset="0.00263467" stop-color="#FFF6A6"/>
<stop offset="0.3545" stop-color="#64B8CB"/>
<stop offset="0.5071" stop-color="#219DDB"/>
<stop offset="1" stop-color="#10488C"/>
</radialGradient>
<radialGradient id="paint18_radial" cx="0" cy="0" r="1" gradientUnits="userSpaceOnUse" gradientTransform="translate(834.042 527.369) rotate(8.89906) scale(344.896)">
<stop offset="0.00263467" stop-color="#FFF6A6"/>
<stop offset="0.3545" stop-color="#64B8CB"/>
<stop offset="0.5071" stop-color="#219DDB"/>
<stop offset="1" stop-color="#10488C"/>
</radialGradient>
<radialGradient id="paint19_radial" cx="0" cy="0" r="1" gradientUnits="userSpaceOnUse" gradientTransform="translate(1027.69 449.918) rotate(8.89905) scale(417.208)">
<stop offset="0.00263467" stop-color="#FFF6A6"/>
<stop offset="0.3545" stop-color="#64B8CB"/>
<stop offset="0.5071" stop-color="#219DDB"/>
<stop offset="1" stop-color="#10488C"/>
</radialGradient>
<radialGradient id="paint20_radial" cx="0" cy="0" r="1" gradientUnits="userSpaceOnUse" gradientTransform="translate(892.763 343.198) rotate(8.89905) scale(373.445 373.445)">
<stop offset="0.00263467" stop-color="#FFF6A6"/>
<stop offset="0.3545" stop-color="#64B8CB"/>
<stop offset="0.5071" stop-color="#219DDB"/>
<stop offset="1" stop-color="#10488C"/>
</radialGradient>
<radialGradient id="paint21_radial" cx="0" cy="0" r="1" gradientUnits="userSpaceOnUse" gradientTransform="translate(1027.69 449.918) rotate(8.89906) scale(417.208 417.208)">
<stop offset="0.00263467" stop-color="#FFF6A6"/>
<stop offset="0.3545" stop-color="#64B8CB"/>
<stop offset="0.5071" stop-color="#219DDB"/>
<stop offset="1" stop-color="#10488C"/>
</radialGradient>
<radialGradient id="paint22_radial" cx="0" cy="0" r="1" gradientUnits="userSpaceOnUse" gradientTransform="translate(848.79 575.382) rotate(8.89906) scale(374.4)">
<stop offset="0.00263467" stop-color="#FFF6A6"/>
<stop offset="0.3545" stop-color="#64B8CB"/>
<stop offset="0.5071" stop-color="#219DDB"/>
<stop offset="1" stop-color="#10488C"/>
</radialGradient>
<radialGradient id="paint23_radial" cx="0" cy="0" r="1" gradientUnits="userSpaceOnUse" gradientTransform="translate(607.754 22.0457) rotate(8.89906) scale(413.012)">
<stop offset="0.00263467" stop-color="#FFF6A6"/>
<stop offset="0.3545" stop-color="#64B8CB"/>
<stop offset="0.5071" stop-color="#219DDB"/>
<stop offset="1" stop-color="#10488C"/>
</radialGradient>
<radialGradient id="paint24_radial" cx="0" cy="0" r="1" gradientUnits="userSpaceOnUse" gradientTransform="translate(631.817 142.374) rotate(8.89906) scale(289.045)">
<stop offset="0.00263467" stop-color="#FFF6A6"/>
<stop offset="0.3545" stop-color="#64B8CB"/>
<stop offset="0.5071" stop-color="#219DDB"/>
<stop offset="1" stop-color="#10488C"/>
</radialGradient>
<radialGradient id="paint25_radial" cx="0" cy="0" r="1" gradientUnits="userSpaceOnUse" gradientTransform="translate(607.754 22.0456) rotate(8.89905) scale(413.012 413.012)">
<stop offset="0.00263467" stop-color="#FFF6A6"/>
<stop offset="0.3545" stop-color="#64B8CB"/>
<stop offset="0.5071" stop-color="#219DDB"/>
<stop offset="1" stop-color="#10488C"/>
</radialGradient>
<radialGradient id="paint26_radial" cx="0" cy="0" r="1" gradientUnits="userSpaceOnUse" gradientTransform="translate(534.886 84.1406) rotate(8.89905) scale(379.309 379.308)">
<stop offset="0.00263467" stop-color="#FFF6A6"/>
<stop offset="0.3545" stop-color="#64B8CB"/>
<stop offset="0.5071" stop-color="#219DDB"/>
<stop offset="1" stop-color="#10488C"/>
</radialGradient>
<radialGradient id="paint27_radial" cx="0" cy="0" r="1" gradientUnits="userSpaceOnUse" gradientTransform="translate(468.212 253.156) scale(581.462 781.02)">
<stop offset="0.00263467" stop-color="#FFF6A6"/>
<stop offset="0.3545" stop-color="#64B8CB"/>
<stop offset="0.5071" stop-color="#219DDB"/>
<stop offset="1" stop-color="#10488C"/>
</radialGradient>
<radialGradient id="paint28_radial" cx="0" cy="0" r="1" gradientUnits="userSpaceOnUse" gradientTransform="translate(31.9489 360.992) scale(523.89 523.89)">
<stop offset="0.00263467" stop-color="#FFF6A6"/>
<stop offset="0.3545" stop-color="#64B8CB"/>
<stop offset="0.5071" stop-color="#219DDB"/>
<stop offset="1" stop-color="#10488C"/>
</radialGradient>
<radialGradient id="paint29_radial" cx="0" cy="0" r="1" gradientUnits="userSpaceOnUse" gradientTransform="translate(402.936 303.967) scale(627.874)">
<stop offset="0.00263467" stop-color="#FFF6A6"/>
<stop offset="0.3545" stop-color="#64B8CB"/>
<stop offset="0.5071" stop-color="#219DDB"/>
<stop offset="1" stop-color="#10488C"/>
</radialGradient>
<radialGradient id="paint30_radial" cx="0" cy="0" r="1" gradientUnits="userSpaceOnUse" gradientTransform="translate(562.338 378.72) scale(340.333 340.332)">
<stop offset="0.00263467" stop-color="#FFF6A6"/>
<stop offset="0.3545" stop-color="#64B8CB"/>
<stop offset="0.5071" stop-color="#219DDB"/>
<stop offset="1" stop-color="#10488C"/>
</radialGradient>
<radialGradient id="paint31_radial" cx="0" cy="0" r="1" gradientUnits="userSpaceOnUse" gradientTransform="translate(62.9579 40.291) scale(1003.3 925.555)">
<stop stop-color="#FFEAA9"/>
<stop offset="0.2841" stop-color="#F79D5E"/>
<stop offset="0.5555" stop-color="#5E7CD3"/>
<stop offset="1" stop-color="#492E93"/>
</radialGradient>
<linearGradient id="paint32_linear" x1="239.125" y1="-21.9369" x2="899.943" y2="748.777" gradientUnits="userSpaceOnUse">
<stop stop-color="#FFF171"/>
<stop offset="1" stop-color="#FF3C00"/>
</linearGradient>
<linearGradient id="paint33_linear" x1="417.352" y1="40.5946" x2="578.978" y2="243.175" gradientUnits="userSpaceOnUse">
<stop stop-color="#FFF171"/>
<stop offset="1" stop-color="#FF3C00"/>
</linearGradient>
<linearGradient id="paint34_linear" x1="431.878" y1="43.5749" x2="587.697" y2="238.877" gradientUnits="userSpaceOnUse">
<stop stop-color="#FFF171"/>
<stop offset="1" stop-color="#FF3C00"/>
</linearGradient>
<linearGradient id="paint35_linear" x1="361.991" y1="91.4371" x2="519.81" y2="289.246" gradientUnits="userSpaceOnUse">
<stop stop-color="#FFF171"/>
<stop offset="1" stop-color="#FF3C00"/>
</linearGradient>
<radialGradient id="paint36_radial" cx="0" cy="0" r="1" gradientUnits="userSpaceOnUse" gradientTransform="translate(410.707 119.55) scale(539.93 498.09)">
<stop stop-color="#FBFFCC"/>
<stop offset="0.3566" stop-color="#FFD4E0"/>
<stop offset="0.9926" stop-color="#152960" stop-opacity="0.4"/>
</radialGradient>
<linearGradient id="paint37_linear" x1="292.218" y1="144.563" x2="448.817" y2="340.844" gradientUnits="userSpaceOnUse">
<stop stop-color="#FFF171"/>
<stop offset="1" stop-color="#FF3C00"/>
</linearGradient>
<linearGradient id="paint38_linear" x1="296.754" y1="135.721" x2="456.877" y2="336.418" gradientUnits="userSpaceOnUse">
<stop stop-color="#FFF171"/>
<stop offset="1" stop-color="#FF3C00"/>
</linearGradient>
<linearGradient id="paint39_linear" x1="354.064" y1="97.1387" x2="509.882" y2="292.441" gradientUnits="userSpaceOnUse">
<stop stop-color="#FFF171"/>
<stop offset="1" stop-color="#FF3C00"/>
</linearGradient>
<linearGradient id="paint40_linear" x1="439.089" y1="-70.2544" x2="704.063" y2="316.166" gradientUnits="userSpaceOnUse">
<stop stop-color="#E20000"/>
<stop offset="1" stop-color="#FF3C00"/>
</linearGradient>
<radialGradient id="paint41_radial" cx="0" cy="0" r="1" gradientUnits="userSpaceOnUse" gradientTransform="translate(1195.27 -364.272) rotate(45) scale(1722.66)">
<stop offset="0.00235679" stop-color="#770707"/>
<stop offset="1" stop-color="#E23333"/>
</radialGradient>
<radialGradient id="paint42_radial" cx="0" cy="0" r="1" gradientUnits="userSpaceOnUse" gradientTransform="translate(281.003 315.199) scale(388.763 359.176)">
<stop offset="0.00235679" stop-color="#770707"/>
<stop offset="1" stop-color="#E23333"/>
</radialGradient>
<radialGradient id="paint43_radial" cx="0" cy="0" r="1" gradientUnits="userSpaceOnUse" gradientTransform="translate(233.469 299.068) scale(81.2332)">
<stop offset="0.00235679" stop-color="#770707"/>
<stop offset="1" stop-color="#E23333"/>
</radialGradient>
<radialGradient id="paint44_radial" cx="0" cy="0" r="1" gradientUnits="userSpaceOnUse" gradientTransform="translate(277.084 476.554) scale(106.084)">
<stop offset="0.00235679" stop-color="#770707"/>
<stop offset="1" stop-color="#E23333"/>
</radialGradient>
<radialGradient id="paint45_radial" cx="0" cy="0" r="1" gradientUnits="userSpaceOnUse" gradientTransform="translate(139.343 407.798) scale(156.687)">
<stop offset="0.00263467" stop-color="#FFF6A6"/>
<stop offset="1" stop-color="#E23333"/>
</radialGradient>
<radialGradient id="paint46_radial" cx="0" cy="0" r="1" gradientUnits="userSpaceOnUse" gradientTransform="translate(496.005 432.468) scale(248.892)">
<stop offset="0.00235679" stop-color="#770707"/>
<stop offset="1" stop-color="#E23333"/>
</radialGradient>
<radialGradient id="paint47_radial" cx="0" cy="0" r="1" gradientUnits="userSpaceOnUse" gradientTransform="translate(270.055 357.256) scale(308.005)">
<stop stop-color="#FFEAA9"/>
<stop offset="0.1044" stop-color="#FCCE8D"/>
<stop offset="0.2841" stop-color="#F79D5E"/>
<stop offset="0.5555" stop-color="#5E7CD3"/>
<stop offset="1" stop-color="#492E93"/>
</radialGradient>
<radialGradient id="paint48_radial" cx="0" cy="0" r="1" gradientUnits="userSpaceOnUse" gradientTransform="translate(307.04 300.067) scale(332.733 332.733)">
<stop stop-color="#FFEAA9"/>
<stop offset="0.1044" stop-color="#FCCE8D"/>
<stop offset="0.2841" stop-color="#F79D5E"/>
<stop offset="0.5555" stop-color="#5E7CD3"/>
<stop offset="1" stop-color="#492E93"/>
</radialGradient>
<radialGradient id="paint49_radial" cx="0" cy="0" r="1" gradientUnits="userSpaceOnUse" gradientTransform="translate(171.428 341.896) scale(189.201 171.548)">
<stop offset="0.00263467" stop-color="#FFF6A6"/>
<stop offset="0.3545" stop-color="#64B8CB"/>
<stop offset="0.5071" stop-color="#219DDB"/>
<stop offset="1" stop-color="#10488C"/>
</radialGradient>
<linearGradient id="paint50_linear" x1="226.87" y1="325.002" x2="312.487" y2="488.17" gradientUnits="userSpaceOnUse">
<stop stop-color="#FFF171"/>
<stop offset="1" stop-color="#FF3C00"/>
</linearGradient>
<radialGradient id="paint51_radial" cx="0" cy="0" r="1" gradientUnits="userSpaceOnUse" gradientTransform="translate(223.514 335.379) rotate(20.3302) scale(186.768 173.767)">
<stop offset="0.00263467" stop-color="#FFF6A6"/>
<stop offset="0.3545" stop-color="#64B8CB"/>
<stop offset="0.5071" stop-color="#219DDB"/>
<stop offset="1" stop-color="#10488C"/>
</radialGradient>
<radialGradient id="paint52_radial" cx="0" cy="0" r="1" gradientUnits="userSpaceOnUse" gradientTransform="translate(174.054 313.385) scale(266.087)">
<stop offset="0.00263467" stop-color="#FFF6A6"/>
<stop offset="0.3545" stop-color="#64B8CB"/>
<stop offset="0.5071" stop-color="#219DDB"/>
<stop offset="1" stop-color="#10488C"/>
</radialGradient>
<radialGradient id="paint53_radial" cx="0" cy="0" r="1" gradientUnits="userSpaceOnUse" gradientTransform="translate(244.399 344.941) scale(57.2187)">
<stop offset="0.00263467" stop-color="#FFF6A6"/>
<stop offset="0.3545" stop-color="#64B8CB"/>
<stop offset="0.5071" stop-color="#219DDB"/>
<stop offset="1" stop-color="#10488C"/>
</radialGradient>
<linearGradient id="paint54_linear" x1="310.337" y1="266.107" x2="350.216" y2="283.302" gradientUnits="userSpaceOnUse">
<stop stop-color="#C14666"/>
<stop offset="0.5802" stop-color="#FE95A9"/>
<stop offset="0.9978" stop-color="#FFDA99"/>
</linearGradient>
<linearGradient id="paint55_linear" x1="354.408" y1="249.308" x2="322.389" y2="238.635" gradientUnits="userSpaceOnUse">
<stop stop-color="#C14666"/>
<stop offset="0.5802" stop-color="#FE95A9"/>
<stop offset="0.9978" stop-color="#FFDA99"/>
</linearGradient>
<radialGradient id="paint56_radial" cx="0" cy="0" r="1" gradientUnits="userSpaceOnUse" gradientTransform="translate(298.174 211.222) scale(51.148)">
<stop stop-color="#FFEAA9"/>
<stop offset="0.1044" stop-color="#FCCE8D"/>
<stop offset="0.2841" stop-color="#F79D5E"/>
<stop offset="0.5555" stop-color="#5E7CD3"/>
<stop offset="1" stop-color="#492E93"/>
</radialGradient>
<linearGradient id="paint57_linear" x1="345.342" y1="235.413" x2="331.538" y2="243.071" gradientUnits="userSpaceOnUse">
<stop stop-color="#C14666"/>
<stop offset="0.5802" stop-color="#FE95A9"/>
<stop offset="0.9978" stop-color="#FFDA99"/>
</linearGradient>
<radialGradient id="paint58_radial" cx="0" cy="0" r="1" gradientUnits="userSpaceOnUse" gradientTransform="translate(146.804 222.408) scale(386.294)">
<stop offset="0.00263467" stop-color="#FFF6A6"/>
<stop offset="0.3545" stop-color="#64B8CB"/>
<stop offset="0.5071" stop-color="#219DDB"/>
<stop offset="1" stop-color="#10488C"/>
</radialGradient>
<radialGradient id="paint59_radial" cx="0" cy="0" r="1" gradientUnits="userSpaceOnUse" gradientTransform="translate(361.904 342.683) scale(38.5348)">
<stop offset="0.00263467" stop-color="#FFF6A6"/>
<stop offset="0.3545" stop-color="#64B8CB"/>
<stop offset="0.5071" stop-color="#219DDB"/>
<stop offset="1" stop-color="#10488C"/>
</radialGradient>
<radialGradient id="paint60_radial" cx="0" cy="0" r="1" gradientUnits="userSpaceOnUse" gradientTransform="translate(316.939 264.372) rotate(-13.7105) scale(43.7333 40.135)">
<stop offset="0.00263467" stop-color="#FFF6A6"/>
<stop offset="0.3545" stop-color="#64B8CB"/>
<stop offset="0.5071" stop-color="#219DDB"/>
<stop offset="1" stop-color="#10488C"/>
</radialGradient>
<linearGradient id="paint61_linear" x1="249.949" y1="421.917" x2="412.995" y2="527.915" gradientUnits="userSpaceOnUse">
<stop stop-color="#FFF171"/>
<stop offset="1" stop-color="#FF3C00"/>
</linearGradient>
<radialGradient id="paint62_radial" cx="0" cy="0" r="1" gradientUnits="userSpaceOnUse" gradientTransform="translate(284.517 434.531) scale(155.422 140.921)">
<stop offset="0.00263467" stop-color="#FFF6A6"/>
<stop offset="0.3545" stop-color="#64B8CB"/>
<stop offset="0.5071" stop-color="#219DDB"/>
<stop offset="1" stop-color="#10488C"/>
</radialGradient>
<radialGradient id="paint63_radial" cx="0" cy="0" r="1" gradientUnits="userSpaceOnUse" gradientTransform="translate(316.629 218.117) rotate(9.79697) scale(67.5147 61.5988)">
<stop stop-color="#FFEAA9"/>
<stop offset="0.1044" stop-color="#FCCE8D"/>
<stop offset="0.2841" stop-color="#F79D5E"/>
<stop offset="0.5555" stop-color="#5E7CD3"/>
<stop offset="1" stop-color="#492E93"/>
</radialGradient>
<radialGradient id="paint64_radial" cx="0" cy="0" r="1" gradientUnits="userSpaceOnUse" gradientTransform="translate(293.145 215.942) scale(89.0326)">
<stop stop-color="#FFEAA9"/>
<stop offset="0.1044" stop-color="#FCCE8D"/>
<stop offset="0.2841" stop-color="#F79D5E"/>
<stop offset="0.5555" stop-color="#5E7CD3"/>
<stop offset="1" stop-color="#492E93"/>
</radialGradient>
<linearGradient id="paint65_linear" x1="412.291" y1="340.111" x2="308.381" y2="284.577" gradientUnits="userSpaceOnUse">
<stop stop-color="#C14666"/>
<stop offset="0.5802" stop-color="#FE95A9"/>
<stop offset="0.9978" stop-color="#FFDA99"/>
</linearGradient>
<radialGradient id="paint66_radial" cx="0" cy="0" r="1" gradientUnits="userSpaceOnUse" gradientTransform="translate(341.758 267.856) scale(49.4801 53.3097)">
<stop offset="0.00263467" stop-color="#FFF6A6"/>
<stop offset="0.3545" stop-color="#64B8CB"/>
<stop offset="0.5071" stop-color="#219DDB"/>
<stop offset="1" stop-color="#10488C"/>
</radialGradient>
<linearGradient id="paint67_linear" x1="167.628" y1="227.927" x2="265.737" y2="309.41" gradientUnits="userSpaceOnUse">
<stop stop-color="#C14666"/>
<stop offset="0.5802" stop-color="#FE95A9"/>
<stop offset="0.9978" stop-color="#FFDA99"/>
</linearGradient>
<radialGradient id="paint68_radial" cx="0" cy="0" r="1" gradientUnits="userSpaceOnUse" gradientTransform="translate(473.456 406.823) scale(219.252)">
<stop offset="0.00263467" stop-color="#260000"/>
<stop offset="1" stop-color="#E23333"/>
</radialGradient>
<radialGradient id="paint69_radial" cx="0" cy="0" r="1" gradientUnits="userSpaceOnUse" gradientTransform="translate(148.343 280.048) scale(279.471)">
<stop offset="0.00235679" stop-color="#770707"/>
<stop offset="1" stop-color="#E23333"/>
</radialGradient>
<radialGradient id="paint70_radial" cx="0" cy="0" r="1" gradientUnits="userSpaceOnUse" gradientTransform="translate(289.354 334.732) scale(217.346 232.078)">
<stop offset="0.00263467" stop-color="#FFF6A6"/>
<stop offset="1" stop-color="#E23333"/>
</radialGradient>
<radialGradient id="paint71_radial" cx="0" cy="0" r="1" gradientUnits="userSpaceOnUse" gradientTransform="translate(324.856 276.286) scale(89.3448)">
<stop offset="0.00263467" stop-color="#FFF6A6"/>
<stop offset="0.3545" stop-color="#64B8CB"/>
<stop offset="0.5071" stop-color="#219DDB"/>
<stop offset="1" stop-color="#10488C"/>
</radialGradient>
<radialGradient id="paint72_radial" cx="0" cy="0" r="1" gradientUnits="userSpaceOnUse" gradientTransform="translate(337.034 283.991) scale(9.15029)">
<stop offset="0.00263467" stop-color="#FFF6A6"/>
<stop offset="0.3545" stop-color="#64B8CB"/>
<stop offset="0.5071" stop-color="#219DDB"/>
<stop offset="1" stop-color="#10488C"/>
</radialGradient>
<radialGradient id="paint73_radial" cx="0" cy="0" r="1" gradientUnits="userSpaceOnUse" gradientTransform="translate(232.807 287.943) scale(102.174 81.2792)">
<stop stop-color="#FFEAA9"/>
<stop offset="0.1044" stop-color="#FCCE8D"/>
<stop offset="0.2841" stop-color="#F79D5E"/>
<stop offset="0.5555" stop-color="#5E7CD3"/>
<stop offset="1" stop-color="#492E93"/>
</radialGradient>
<radialGradient id="paint74_radial" cx="0" cy="0" r="1" gradientUnits="userSpaceOnUse" gradientTransform="translate(169.311 276.201) scale(191.709)">
<stop stop-color="#FFEAA9"/>
<stop offset="0.1044" stop-color="#FCCE8D"/>
<stop offset="0.2841" stop-color="#F79D5E"/>
<stop offset="0.5555" stop-color="#5E7CD3"/>
<stop offset="1" stop-color="#492E93"/>
</radialGradient>
<linearGradient id="paint75_linear" x1="128.223" y1="305.605" x2="232.591" y2="334.237" gradientUnits="userSpaceOnUse">
<stop offset="0.00263467" stop-color="#FFF6A6" stop-opacity="0"/>
<stop offset="1" stop-color="white"/>
</linearGradient>
<radialGradient id="paint76_radial" cx="0" cy="0" r="1" gradientUnits="userSpaceOnUse" gradientTransform="translate(253.08 310.258) scale(25.9968)">
<stop offset="0.00235679" stop-color="#770707"/>
<stop offset="1" stop-color="#E23333"/>
</radialGradient>
<radialGradient id="paint77_radial" cx="0" cy="0" r="1" gradientUnits="userSpaceOnUse" gradientTransform="translate(287.501 337.706) scale(31.8112)">
<stop offset="0.00235679" stop-color="#770707"/>
<stop offset="1" stop-color="#E23333"/>
</radialGradient>
<radialGradient id="paint78_radial" cx="0" cy="0" r="1" gradientUnits="userSpaceOnUse" gradientTransform="translate(280.812 440.878) scale(207.407 176.202)">
<stop offset="0.00263467" stop-color="#260000"/>
<stop offset="1" stop-color="#E23333"/>
</radialGradient>
<radialGradient id="paint79_radial" cx="0" cy="0" r="1" gradientUnits="userSpaceOnUse" gradientTransform="translate(258.074 458.563) scale(270.611 229.897)">
<stop offset="0.00263467" stop-color="#260000"/>
<stop offset="1" stop-color="#E23333"/>
</radialGradient>
<radialGradient id="paint80_radial" cx="0" cy="0" r="1" gradientUnits="userSpaceOnUse" gradientTransform="translate(484.498 497.288) scale(45.8111 38.9188)">
<stop offset="0.00263467" stop-color="#260000"/>
<stop offset="1" stop-color="#E23333"/>
</radialGradient>
<radialGradient id="paint81_radial" cx="0" cy="0" r="1" gradientUnits="userSpaceOnUse" gradientTransform="translate(383.83 448.586) scale(67.179 57.0718)">
<stop offset="0.00263467" stop-color="#260000"/>
<stop offset="1" stop-color="#E23333"/>
</radialGradient>
<radialGradient id="paint82_radial" cx="0" cy="0" r="1" gradientUnits="userSpaceOnUse" gradientTransform="translate(239.627 392.815) scale(293.793 293.793)">
<stop offset="0.00263467" stop-color="#260000"/>
<stop offset="1" stop-color="#E23333"/>
</radialGradient>
<radialGradient id="paint83_radial" cx="0" cy="0" r="1" gradientUnits="userSpaceOnUse" gradientTransform="translate(344.919 399.742) scale(121.086)">
<stop offset="0.00263467" stop-color="#260000"/>
<stop offset="1" stop-color="#E23333"/>
</radialGradient>
<radialGradient id="paint84_radial" cx="0" cy="0" r="1" gradientUnits="userSpaceOnUse" gradientTransform="translate(344.919 399.742) scale(121.086)">
<stop offset="0.00263467" stop-color="#260000"/>
<stop offset="1" stop-color="#E23333"/>
</radialGradient>
<radialGradient id="paint85_radial" cx="0" cy="0" r="1" gradientUnits="userSpaceOnUse" gradientTransform="translate(344.919 399.742) scale(121.086)">
<stop offset="0.00263467" stop-color="#260000"/>
<stop offset="1" stop-color="#E23333"/>
</radialGradient>
<radialGradient id="paint86_radial" cx="0" cy="0" r="1" gradientUnits="userSpaceOnUse" gradientTransform="translate(344.919 399.742) scale(121.086 121.087)">
<stop offset="0.00263467" stop-color="#260000"/>
<stop offset="1" stop-color="#E23333"/>
</radialGradient>
<linearGradient id="paint87_linear" x1="405.887" y1="301.949" x2="568.706" y2="385.09" gradientUnits="userSpaceOnUse">
<stop stop-color="#FCCA81"/>
<stop offset="1" stop-color="#E87446"/>
</linearGradient>
<linearGradient id="paint88_linear" x1="414.722" y1="220.058" x2="504.792" y2="319.654" gradientUnits="userSpaceOnUse">
<stop stop-color="#FCCA81"/>
<stop offset="1" stop-color="#E87446"/>
</linearGradient>
<linearGradient id="paint89_linear" x1="486.227" y1="303.838" x2="815.328" y2="500.434" gradientUnits="userSpaceOnUse">
<stop stop-color="#FCCA81"/>
<stop offset="1" stop-color="#E87446"/>
</linearGradient>
<linearGradient id="paint90_linear" x1="463.287" y1="239.866" x2="568.08" y2="339.895" gradientUnits="userSpaceOnUse">
<stop stop-color="#FCCA81"/>
<stop offset="1" stop-color="#E87446"/>
</linearGradient>
<linearGradient id="paint91_linear" x1="408.109" y1="227.185" x2="552.428" y2="300.88" gradientUnits="userSpaceOnUse">
<stop stop-color="#FCCA81"/>
<stop offset="1" stop-color="#E87446"/>
</linearGradient>
<linearGradient id="paint92_linear" x1="415.94" y1="154.599" x2="495.776" y2="242.879" gradientUnits="userSpaceOnUse">
<stop stop-color="#FCCA81"/>
<stop offset="1" stop-color="#E87446"/>
</linearGradient>
<linearGradient id="paint93_linear" x1="479.32" y1="228.86" x2="771.029" y2="403.118" gradientUnits="userSpaceOnUse">
<stop stop-color="#FCCA81"/>
<stop offset="1" stop-color="#E87446"/>
</linearGradient>
<linearGradient id="paint94_linear" x1="458.986" y1="172.156" x2="551.873" y2="260.82" gradientUnits="userSpaceOnUse">
<stop stop-color="#FCCA81"/>
<stop offset="1" stop-color="#E87446"/>
</linearGradient>
<radialGradient id="paint95_radial" cx="0" cy="0" r="1" gradientUnits="userSpaceOnUse" gradientTransform="translate(297.312 -13.0356) scale(441.982)">
<stop offset="0.00263467" stop-color="#FFF6A6"/>
<stop offset="0.3545" stop-color="#64B8CB"/>
<stop offset="0.5071" stop-color="#219DDB"/>
<stop offset="1" stop-color="#10488C"/>
</radialGradient>
<radialGradient id="paint96_radial" cx="0" cy="0" r="1" gradientUnits="userSpaceOnUse" gradientTransform="translate(101.97 160.933) scale(302.614)">
<stop offset="0.00263467" stop-color="#FFF6A6"/>
<stop offset="0.3545" stop-color="#64B8CB"/>
<stop offset="0.5071" stop-color="#219DDB"/>
<stop offset="1" stop-color="#10488C"/>
</radialGradient>
<clipPath id="clip0">
<rect width="874" height="511.1" fill="white"/>
</clipPath>
</defs>
</svg>
