<?xml version="1.0" encoding="utf-8"?>
<!-- Generator: Adobe Illustrator 24.1.1, SVG Export Plug-In . SVG Version: 6.00 Build 0)  -->
<svg version="1.2" baseProfile="tiny" xmlns="http://www.w3.org/2000/svg" xmlns:xlink="http://www.w3.org/1999/xlink" x="0px"
	 y="0px" viewBox="0 0 178 200" xml:space="preserve">
<g id="Слой_2">
	<path fill="none" stroke="#007904" stroke-width="5" stroke-miterlimit="10" d="M171.9270325,151.5001373l-79.0944366,45.000946
		c-2.3054886,1.3117218-5.1315308,1.3117218-7.4370193,0L6.3010955,151.5002136
		c-2.3497963-1.3369141-3.8010621-3.8323364-3.8010635-6.5358276L2.4999845,55.1524773
		c-0.0000014-2.7035217,1.4512756-5.1989632,3.8010929-6.5358963l79.0943909-45.000927
		c2.3054962-1.3117139,5.1315308-1.3117151,7.437027-0.0000031l79.0944748,45.0008774
		c2.3497925,1.3369217,3.8010712,3.8323364,3.8010712,6.5358353l0.0000458,89.8119507
		C175.7280884,147.6678009,174.276825,150.1632233,171.9270325,151.5001373z"/>
</g>
<g id="Слой_1">
	<path fill="#008200" d="M60,50.6779976v28.644001c0,1.9701309,1.0388374,3.7942657,2.7332573,4.7994308l23.9196129,14.1896057
		c1.7552795,1.0412674,3.9389725,1.0412674,5.6942444,0l23.9196167-14.1896057
		c1.6944122-1.0051651,2.7332535-2.8292999,2.7332535-4.7994308v-28.644001c0-1.9701271-1.0388412-3.7942657-2.7332535-4.799427
		L92.3471146,31.6889591c-1.7552719-1.0412655-3.9389648-1.0412655-5.6942444,0L62.7332573,45.8785706
		C61.0388374,46.8837318,60,48.7078705,60,50.6779976z"/>
	<g>
		<g>
			<path fill="#FFFFFF" d="M9.4882813,104.3828125v-0.8398438h5.8789063v0.8398438l-2.7304688,0.3154297h-0.4199219
				L9.4882813,104.3828125z M12.4277344,116.4560547v1.1552734H9.4882813v-0.8398438l2.7285156-0.3154297H12.4277344z
				 M11.4199219,103.5429688h2.015625c-0.0634766,2.1630859-0.0634766,4.3466797-0.0634766,6.5097656v1.46875
				c0,1.7851563,0,3.96875,0.0634766,6.0898438h-2.015625c0.0625-2.1630859,0.0625-4.3466797,0.0625-6.5097656v-1.0488281
				C11.4824219,107.8476563,11.4824219,105.6640625,11.4199219,103.5429688z M20.1328125,113.6640625l-0.2099609,3.9472656
				h-7.4951172v-1.0507813H19.1875l-1.1542969,1.0507813l0.8398438-3.9472656H20.1328125z"/>
			<path fill="#FFFFFF" d="M21.6054688,104.3828125v-0.8398438h2.9394531v1.1552734h-0.2109375L21.6054688,104.3828125z
				 M24.5449219,116.4560547v1.1552734h-2.9394531v-0.8398438l2.7285156-0.3154297H24.5449219z M23.5996094,110.0527344
				c0-2.1630859,0-4.3466797-0.0625-6.5097656h2.015625c-0.0634766,2.1210938-0.0634766,4.3046875-0.0634766,6.5097656v0.796875
				c0,2.4150391,0,4.5986328,0.0634766,6.7617188h-2.015625c0.0625-2.1210938,0.0625-4.3046875,0.0625-6.5097656V110.0527344z
				 M30.3603516,103.5429688l0.9443359,1.0507813h-6.7597656v-1.0507813h7.4951172L32.1875,107.28125h-1.1757813
				L30.3603516,103.5429688z M29.2890625,110.9130859h-4.7441406v-0.9658203h4.7441406V110.9130859z M32.6074219,113.8730469
				l-0.1474609,3.7382813h-7.9150391v-1.0507813h7.1796875l-0.9443359,1.0507813l0.6513672-3.7382813H32.6074219z
				 M28.6171875,110.1572266l0.3154297-2.2255859h0.9443359v4.9765625h-0.9443359l-0.3154297-2.3310547V110.1572266z"/>
			<path fill="#FFFFFF" d="M46.0253906,116.6875c-1.4492188,0.7558594-2.8769531,1.2382813-4.6191406,1.2382813
				c-4.1992188,0-7.0546875-3.1289063-7.0546875-7.3486328s2.8769531-7.3486328,7.1386719-7.3486328
				c1.7421875,0,3.0449219,0.3144531,4.2207031,1.0078125l0.0839844,3.0449219h-1.28125l-0.5253906-3.1074219l1.3027344,0.4199219
				v1.1962891c-1.1347656-1.0498047-2.2890625-1.5117188-3.6328125-1.5117188c-2.9394531,0-5.1015625,2.2880859-5.1015625,6.2988281
				c0,3.9892578,1.9726563,6.2783203,5.2480469,6.2783203c1.1972656,0,2.0791016-0.2734375,3.2753906-0.8613281
				l-0.9443359,0.9863281v-1.2167969c0-1.5957031-0.0205078-3.234375-0.0634766-4.8300781h2.015625
				c-0.0410156,1.5751953-0.0625,3.1914063-0.0625,4.8300781V116.6875z M41.8886719,111.7734375v-0.8398438h5.4589844v0.8398438
				l-2.3085938,0.2109375h-0.4199219L41.8886719,111.7734375z"/>
			<path fill="#FFFFFF" d="M47.5605469,116.7714844l2.0996094-0.3154297h0.4199219l2.3105469,0.3154297v0.8398438h-4.8300781
				V116.7714844z M53.8183594,103.4384766h1.2597656l4.828125,14.1728516h-1.9521484l-4.2197266-12.5771484h0.4824219
				l-4.2832031,12.5771484h-0.9863281L53.8183594,103.4384766z M51.3613281,112.046875h5.6689453l0.3359375,0.9658203h-6.3408203
				L51.3613281,112.046875z M55.4980469,116.7714844l2.6445313-0.3154297H58.5625l2.6035156,0.3154297v0.8398438h-5.6679688
				V116.7714844z"/>
			<path fill="#FFFFFF" d="M62.1132813,104.3828125v-0.8398438h5.8789063v0.8398438l-2.7285156,0.3154297H64.84375
				L62.1132813,104.3828125z M65.0527344,116.4560547v1.1552734h-2.9394531v-0.8398438l2.7304688-0.3154297H65.0527344z
				 M64.0449219,103.5429688h2.015625c-0.0625,2.1630859-0.0625,4.3466797-0.0625,6.5097656v1.46875
				c0,1.7851563,0,3.96875,0.0625,6.0898438h-2.015625c0.0634766-2.1630859,0.0634766-4.3466797,0.0634766-6.5097656v-1.0488281
				C64.1083984,107.8476563,64.1083984,105.6640625,64.0449219,103.5429688z M72.7587891,113.6640625l-0.2099609,3.9472656
				h-7.4960938v-1.0507813h6.7617188l-1.1552734,1.0507813l0.8398438-3.9472656H72.7587891z"/>
			<path fill="#FFFFFF" d="M79.5644531,104.3828125v-0.8398438h2.9394531v1.1552734h-0.2109375L79.5644531,104.3828125z
				 M82.7128906,116.4560547l2.7304688,0.3154297v0.8398438h-5.8789063v-0.8398438l2.7285156-0.3154297H82.7128906z
				 M81.5585938,110.0527344c0-2.1630859,0-4.3466797-0.0625-6.5097656h2.015625
				c-0.0634766,2.1210938-0.0634766,4.3046875-0.0634766,6.5097656v1.2802734c0,2.1416016,0,4.1152344,0.0634766,6.2783203
				h-2.015625c0.0625-2.1210938,0.0625-4.3046875,0.0625-6.5097656V110.0527344z M84.5820313,112.046875h-2.078125v-0.9658203
				h2.3925781c2.5830078,0,3.5908203-1.3642578,3.5908203-3.359375c0-2.0361328-1.1337891-3.2119141-3.6748047-3.2119141h-2.3085938
				v-0.9667969h2.7080078c3.4853516,0,5.2705078,1.7226563,5.2705078,4.1787109
				C90.4824219,110.0732422,88.8652344,112.046875,84.5820313,112.046875z"/>
			<path fill="#FFFFFF" d="M89.8125,116.7714844l2.0996094-0.3154297h0.4199219l2.3085938,0.3154297v0.8398438H89.8125V116.7714844z
				 M96.0683594,103.4384766h1.2597656l4.8300781,14.1728516h-1.953125l-4.2207031-12.5771484h0.4833984l-4.2832031,12.5771484
				h-0.9873047L96.0683594,103.4384766z M93.6123047,112.046875H99.28125l0.3359375,0.9658203h-6.3408203L93.6123047,112.046875z
				 M97.7480469,116.7714844l2.6464844-0.3154297h0.4199219l2.6035156,0.3154297v0.8398438h-5.6699219V116.7714844z"/>
			<path fill="#FFFFFF" d="M104.3652344,104.3828125v-0.8398438h2.9394531v1.1552734H107.09375L104.3652344,104.3828125z
				 M107.5136719,116.4560547l2.7304688,0.3154297v0.8398438h-5.8789063v-0.8398438l2.7285156-0.3154297H107.5136719z
				 M106.359375,110.0527344c0-2.1630859,0-4.3466797-0.0625-6.5097656h2.015625
				c-0.0634766,2.1835938-0.0634766,4.2421875-0.0634766,6.71875v0.6308594c0,2.3720703,0,4.5556641,0.0634766,6.71875h-2.015625
				c0.0625-2.1210938,0.0625-4.3046875,0.0625-6.5097656V110.0527344z M107.3046875,110.1572266h2.6240234
				c2.2675781,0,3.359375-1.2177734,3.359375-2.9189453c0-1.7636719-0.9443359-2.7285156-3.1279297-2.7285156h-2.8554688v-0.9667969
				h2.8759766c3.2119141,0,5.1025391,1.3652344,5.1025391,3.6953125c0,1.7851563-1.4072266,3.4023438-4.1582031,3.6328125
				l0.0634766-0.1679688c1.5117188,0.1464844,2.4355469,0.8398438,3.0029297,2.7294922l1.0283203,3.4853516l-0.6513672-0.3984375
				l2.1630859,0.2519531v0.8398438c-0.3779297,0.125-0.8818359,0.2089844-1.5117188,0.2089844
				c-1.3017578,0-1.8681641-0.3359375-2.1201172-1.3007813l-0.8613281-3.4228516
				c-0.4199219-1.7001953-1.1972656-1.9951172-2.9394531-1.9951172h-1.9941406V110.1572266z"/>
			<path fill="#FFFFFF" d="M117.7421875,104.59375l0.9443359-1.0507813l-0.671875,3.7382813h-1.1757813l0.1679688-3.7382813
				h11.4638672l0.1679688,3.7382813h-1.1757813l-0.671875-3.7382813l0.9453125,1.0507813H117.7421875z M122.9492188,116.4560547
				l2.9394531,0.3154297v0.8398438h-6.2988281v-0.8398438l2.9394531-0.3154297H122.9492188z M121.7939453,110.0527344
				c0-2.1630859,0-4.3466797-0.0634766-6.5097656h2.015625c-0.0625,2.1210938-0.0625,4.3046875-0.0625,6.5097656v1.0488281
				c0,2.1630859,0,4.3466797,0.0625,6.5097656h-2.015625c0.0634766-2.1210938,0.0634766-4.3046875,0.0634766-6.5097656V110.0527344z
				"/>
			<path fill="#FFFFFF" d="M129.9003906,116.7714844l2.2050781-0.3154297h0.4199219l2.4140625,0.3154297v0.8398438h-5.0390625
				V116.7714844z M131.2226563,104.1943359l1.3027344,0.5039063l-2.5195313-0.3154297v-0.8398438h3.1484375l8.7138672,11.9892578
				v2.2255859h-0.671875L131.2226563,104.1943359z M131.6855469,103.5429688l1.0488281,0.8398438v13.2285156h-1.0488281V103.5429688
				z M138.6132813,103.5429688h5.0390625v0.8398438l-2.0996094,0.3154297h-0.4199219l-2.5195313-0.3154297V103.5429688z
				 M140.8183594,103.5429688h1.0498047v14.2148438l-1.0498047-1.0498047V103.5429688z"/>
			<path fill="#FFFFFF" d="M145.2304688,104.3828125v-0.8398438h2.9394531v1.1552734h-0.2109375L145.2304688,104.3828125z
				 M148.1699219,116.4560547v1.1552734h-2.9394531v-0.8398438l2.7285156-0.3154297H148.1699219z M147.2246094,110.0527344
				c0-2.1630859,0-4.3466797-0.0625-6.5097656h2.015625c-0.0634766,2.1210938-0.0634766,4.3046875-0.0634766,6.5097656v0.796875
				c0,2.4150391,0,4.5986328,0.0634766,6.7617188h-2.015625c0.0625-2.1210938,0.0625-4.3046875,0.0625-6.5097656V110.0527344z
				 M153.9853516,103.5429688l0.9443359,1.0507813h-6.7597656v-1.0507813h7.4951172L155.8125,107.28125h-1.1757813
				L153.9853516,103.5429688z M152.9140625,110.9130859h-4.7441406v-0.9658203h4.7441406V110.9130859z M156.2324219,113.8730469
				l-0.1474609,3.7382813h-7.9150391v-1.0507813h7.1796875l-0.9443359,1.0507813l0.6513672-3.7382813H156.2324219z
				 M152.2421875,110.1572266l0.3154297-2.2255859h0.9443359v4.9765625h-0.9443359l-0.3154297-2.3310547V110.1572266z"/>
			<path fill="#FFFFFF" d="M157.9140625,104.3828125v-0.8398438h2.9394531v1.1552734h-0.2109375L157.9140625,104.3828125z
				 M161.0625,116.4560547l2.7304688,0.3154297v0.8398438h-5.8789063v-0.8398438l2.7285156-0.3154297H161.0625z
				 M159.9082031,110.0527344c0-2.1630859,0-4.3466797-0.0625-6.5097656h2.015625
				c-0.0634766,2.1835938-0.0634766,4.2421875-0.0634766,6.71875v0.6308594c0,2.3720703,0,4.5556641,0.0634766,6.71875h-2.015625
				c0.0625-2.1210938,0.0625-4.3046875,0.0625-6.5097656V110.0527344z M160.8535156,110.1572266h2.6240234
				c2.2675781,0,3.359375-1.2177734,3.359375-2.9189453c0-1.7636719-0.9443359-2.7285156-3.1279297-2.7285156h-2.8554688v-0.9667969
				h2.8759766c3.2119141,0,5.1025391,1.3652344,5.1025391,3.6953125c0,1.7851563-1.4072266,3.4023438-4.1582031,3.6328125
				l0.0634766-0.1679688c1.5117188,0.1464844,2.4355469,0.8398438,3.0029297,2.7294922l1.0283203,3.4853516l-0.6513672-0.3984375
				l2.1630859,0.2519531v0.8398438c-0.3779297,0.125-0.8818359,0.2089844-1.5117188,0.2089844
				c-1.3017578,0-1.8681641-0.3359375-2.1201172-1.3007813l-0.8613281-3.4228516
				c-0.4199219-1.7001953-1.1972656-1.9951172-2.9394531-1.9951172h-1.9941406V110.1572266z"/>
		</g>
	</g>
	<g>
		<g>
			<path fill="#FFFFFF" d="M40.6196289,127.8359375v-0.9599609h6.7207031v0.9599609l-3.1201172,0.3603516h-0.4799805
				L40.6196289,127.8359375z M48.8286133,141.6367188c2.7602539,0,4.1523438-1.5595703,4.1523438-5.8554688v-8.9052734h1.2001953
				v9.5283203c0,5.0410156-2.4482422,6.9130859-5.6889648,6.9130859c-3.4799805,0-5.8320313-1.9443359-5.8320313-6.4082031
				v-2.5927734c0-2.4716797,0-4.96875-0.0722656-7.4404297h2.3041992c-0.0717773,2.4248047-0.0717773,4.9208984-0.0717773,7.4404297
				v1.8964844C44.8203125,140.3417969,46.3803711,141.6367188,48.8286133,141.6367188z M53.1489258,128.1962891
				l-2.6401367-0.3603516v-0.9599609h5.7602539v0.9599609l-2.6401367,0.3603516H53.1489258z"/>
			<path fill="#FFFFFF" d="M57.8276367,142.1171875l2.5922852-0.4804688l-0.7924805,1.3203125
				c0.0483398-1.0800781,0.0722656-3.5517578,0.0722656-5.0400391v-10.5615234l-1.9921875-0.2392578v-0.8408203l3.6000977-1.0800781
				l0.3364258,0.1933594l-0.0961914,3.4082031v4.6074219l0.0717773,0.3125v7.3447266l-0.2397461,2.1357422l-3.5522461-0.2402344
				V142.1171875z M67.7646484,137.3652344c0-3.0966797-1.2724609-4.7763672-3.0966797-4.7763672
				c-0.8637695,0-2.0400391,0.3837891-3.7919922,2.1357422l-0.2163086-0.4316406
				c1.3920898-2.1123047,2.9521484-3.0244141,4.5844727-3.0244141c2.5439453,0,4.5605469,2.1845703,4.5605469,5.8798828
				c0,3.6972656-2.1123047,6.1210938-4.9208984,6.1210938c-1.4638672,0-2.9521484-0.6484375-4.2241211-3.1445313
				l0.2163086-0.3837891c1.2480469,1.5839844,2.5439453,2.2080078,3.671875,2.2080078
				C66.2763672,141.9492188,67.7646484,140.4609375,67.7646484,137.3652344z"/>
			<path fill="#FFFFFF" d="M81.9238281,135.8535156c0,0.5507813-0.0712891,1.03125-0.1679688,1.34375h-8.8564453v-1.0078125
				h5.7128906c1.1513672,0,1.4160156-0.5527344,1.4160156-1.2246094c0-1.3681641-1.1523438-2.6162109-2.6640625-2.6162109
				c-1.5361328,0-3.3125,1.2958984-3.3125,4.7285156c0,3.0478516,1.5361328,4.6806641,3.9365234,4.6806641
				c1.5361328,0,2.4960938-0.6962891,3.359375-1.7050781l0.5527344,0.4326172
				c-0.8642578,1.7041016-2.4003906,2.7841797-4.5849609,2.7841797c-3.2158203,0-5.3037109-2.2324219-5.3037109-5.8808594
				c0-3.671875,2.4960938-6.1201172,5.4716797-6.1201172C79.9560547,131.2685547,81.9238281,132.9492188,81.9238281,135.8535156z"/>
			<path fill="#FFFFFF" d="M85.9550781,137.9169922v-1.1279297c0-1.3203125-0.0234375-2.0644531-0.0722656-3.0244141
				l-1.9199219-0.2158203v-0.8398438l3.2646484-1.4404297l0.3603516,0.2392578L87.875,134.5087891v3.4082031
				c0,1.4882813,0.0244141,3.9599609,0.0722656,5.0400391h-2.0644531
				C85.9316406,141.8769531,85.9550781,139.4052734,85.9550781,137.9169922z M84.1552734,142.1171875l2.6396484-0.4804688h0.4804688
				l2.640625,0.4804688v0.8398438h-5.7607422V142.1171875z M86.9150391,134.6767578h1.3681641l-0.5996094,0.1679688
				c0.7675781-2.2314453,2.2324219-3.5761719,3.6484375-3.5761719c0.6953125,0,1.4160156,0.3359375,1.7041016,0.8154297
				c0,1.1289063-0.4326172,1.7529297-1.3925781,1.7529297c-0.5517578,0-1.0078125-0.2158203-1.4394531-0.5761719
				l-0.6484375-0.5517578l1.1757813-0.2402344c-1.4882813,0.7675781-2.3515625,1.96875-2.9042969,3.8164063h-0.9121094V134.6767578z
				"/>
			<path fill="#FFFFFF" d="M99.8984375,127.8359375v-0.9599609h3.3603516v1.3203125h-0.2402344L99.8984375,127.8359375z
				 M103.2587891,141.6367188v1.3203125h-3.3603516v-0.9589844l3.1201172-0.3613281H103.2587891z M102.1787109,134.3164063
				c0-2.4716797,0-4.96875-0.0722656-7.4404297h2.3046875c-0.0722656,2.4248047-0.0722656,4.9208984-0.0722656,7.4404297v0.8398438
				c0,2.8330078,0,5.3291016,0.0722656,7.8007813h-2.3046875c0.0722656-2.4238281,0.0722656-4.9199219,0.0722656-7.4394531
				V134.3164063z M103.2587891,134.1005859h2.3759766c2.9521484,0,4.2246094-0.9365234,4.2246094-3.1435547
				c0-2.2089844-1.2724609-2.9765625-3.7441406-2.9765625h-2.8564453v-1.1044922h3.5527344
				c3.2880859,0,5.2080078,1.6318359,5.2080078,3.9365234c0,1.8720703-1.2958984,3.5283203-4.4882813,3.9121094v-0.2158203
				c3.7441406,0.3115234,5.2802734,1.9921875,5.2802734,4.0556641c0,2.1855469-1.7998047,4.3925781-6.3369141,4.3925781h-3.2158203
				v-1.1035156h2.640625c3.1201172,0,4.6318359-1.1757813,4.6318359-3.2890625c0-2.2314453-1.4638672-3.359375-4.8242188-3.359375
				h-2.4482422V134.1005859z"/>
			<path fill="#FFFFFF" d="M114.9951172,137.3164063c0-3.984375,2.7119141-6.0478516,5.4716797-6.0478516
				c2.7128906,0,5.4726563,2.0634766,5.4726563,6.0478516s-2.7597656,5.953125-5.4726563,5.953125
				C117.7070313,143.2695313,114.9951172,141.3007813,114.9951172,137.3164063z M123.7792969,137.3164063
				c0-3.2158203-1.2236328-4.9677734-3.3125-4.9677734c-2.1357422,0-3.3115234,1.7519531-3.3115234,4.9677734
				c0,3.2167969,1.1757813,4.8730469,3.3115234,4.8730469C122.5556641,142.1894531,123.7792969,140.5332031,123.7792969,137.3164063
				z"/>
			<path fill="#FFFFFF" d="M131.0751953,125.1953125l0.3359375,0.1933594l-0.0957031,3.4082031v9.1201172
				c0,1.6806641,0.0234375,3.3603516,0.0712891,5.0400391h-2.0634766c0.0478516-1.6796875,0.0712891-3.359375,0.0712891-5.0400391
				v-10.5615234l-1.9921875-0.2392578v-0.8408203L131.0751953,125.1953125z M133.3076172,142.1171875v0.8398438h-5.9052734
				v-0.8398438l2.7128906-0.4804688h0.4794922L133.3076172,142.1171875z"/>
			<path fill="#FFFFFF" d="M139.4023438,142.0693359c0.5283203,0,1.0087891-0.2158203,1.6328125-0.671875l0.5517578,0.6474609
				c-0.5996094,0.7685547-1.5839844,1.2246094-2.7841797,1.2246094c-1.65625,0-2.6884766-0.8642578-2.6884766-2.7128906
				c0-0.5751953,0.0244141-1.0800781,0.0244141-2.015625v-5.7128906h-2.0166016v-1.03125l2.9765625-0.3847656l-0.9599609,0.7929688
				l0.7197266-3.8886719h1.3925781l-0.1923828,4.2001953v7.7763672
				C138.0585938,141.5410156,138.5869141,142.0693359,139.4023438,142.0693359z M141.3710938,131.5800781v1.2480469h-4.2724609
				v-1.2480469H141.3710938z"/>
		</g>
	</g>
	<g>
		<path fill="#FFFFFF" d="M70.3916016,53.5327148h-2.1337891c-0.2529297-0.0737305-0.3789063-0.137207-0.3789063-0.1899414
			c0-0.0634766,0.1259766-0.1323242,0.3789063-0.206543h11.4604492c0.1142578,0,0.2119141,0.0185547,0.2924805,0.0556641
			c0.0800781,0.0371094,0.1206055,0.0820313,0.1206055,0.1347656c0,0.0634766-0.0405273,0.1137695-0.1206055,0.1508789
			c-0.0805664,0.0371094-0.1782227,0.0551758-0.2924805,0.0551758h-2.2714844v23.0444336h1.4506836
			c1.0356445,0,1.9458008-0.1347656,2.7285156-0.4042969c0.7832031-0.2695313,1.5429688-0.8271484,2.2797852-1.6733398
			c1.081543-1.2470703,1.8706055-2.6088867,2.3657227-4.0834961c0.4951172-1.4750977,0.7539063-2.4189453,0.7773438-2.8310547
			c0.0214844-0.1479492,0.0654297-0.2431641,0.1318359-0.2856445l0.2636719-0.0473633l0.2641602,0.0473633
			c0.0878906,0.0424805,0.1318359,0.0898438,0.1318359,0.1425781l-0.2753906,9.5478516H68.2236328
			c-0.1147461,0-0.2124023-0.0175781-0.2929688-0.0532227s-0.1206055-0.0839844-0.1206055-0.1450195
			s0.0405273-0.1088867,0.1220703-0.1445313s0.1801758-0.0537109,0.2963867-0.0537109h2.1630859V53.5327148z"/>
		<path fill="#FFFFFF" d="M92.0048828,53.5327148h-2.1738281c-0.1137695,0-0.2099609-0.0180664-0.2890625-0.0551758
			c-0.0795898-0.0371094-0.1186523-0.0820313-0.1186523-0.1347656c0-0.0634766,0.0395508-0.1137695,0.1196289-0.1508789
			c0.0805664-0.0371094,0.1777344-0.0556641,0.2929688-0.0556641h10.2041016c1.6044922,0,3.1503906,0.1801758,4.6386719,0.5400391
			c1.0537109,0.2646484,2.0439453,0.6748047,2.9726563,1.2304688c0.9277344,0.5556641,1.6210938,1.1088867,2.0791016,1.6591797
			c0.6181641,0.7519531,0.9277344,1.6201172,0.9277344,2.6040039v1.6674805c0,1.175293-0.4707031,2.1992188-1.4111328,3.0727539
			c-0.9414063,0.8730469-2.2089844,1.5615234-3.8037109,2.0639648c-1.5947266,0.5029297-3.2753906,0.7543945-5.0410156,0.7543945
			h-1.2392578v9.8647461h2.0644531c0.1152344,0,0.2119141,0.0180664,0.2929688,0.0537109
			c0.0800781,0.0356445,0.1201172,0.0834961,0.1201172,0.1445313s-0.0400391,0.109375-0.1201172,0.1450195
			s-0.1777344,0.0532227-0.2919922,0.0532227H89.8349609c-0.1142578,0-0.2114258-0.0175781-0.2919922-0.0532227
			c-0.0800781-0.0356445-0.1196289-0.0839844-0.1196289-0.1450195s0.0390625-0.1088867,0.1186523-0.1445313
			c0.0791016-0.0356445,0.175293-0.0537109,0.2890625-0.0537109h2.1738281V53.5327148z M99.1630859,53.5488281V66.315918h1.2734375
			c0.8710938,0,1.5830078-0.1293945,2.1337891-0.3881836c0.5507813-0.2583008,0.8261719-0.6201172,0.8261719-1.0849609v-9.7099609
			c0-0.5385742-0.2646484-0.9555664-0.7919922-1.2514648c-0.390625-0.2216797-0.9521484-0.3325195-1.6865234-0.3325195H99.1630859z"
			/>
	</g>
</g>
</svg>
